<svg width="32" height="32" viewBox="0 0 32 32" fill="none" xmlns="http://www.w3.org/2000/svg">
<path d="M2.6665 16H11.9998C14.2665 16 15.9998 17.7333 15.9998 20C15.9998 22.2667 14.2665 24 11.9998 24H3.99984C3.19984 24 2.6665 23.4667 2.6665 22.6667V9.33333C2.6665 8.53333 3.19984 8 3.99984 8H10.6665C12.9332 8 14.6665 9.73333 14.6665 12C14.6665 14.2667 12.9332 16 10.6665 16H2.6665Z" stroke="#15616D" stroke-width="2" stroke-miterlimit="10"/>
<path d="M18.6665 18.6667H29.3332C29.3332 15.7334 26.9332 13.3334 23.9998 13.3334C21.0665 13.3334 18.6665 15.7334 18.6665 18.6667ZM18.6665 18.6667C18.6665 21.6 21.0665 24 23.9998 24H26.2665" stroke="#15616D" stroke-width="2" stroke-miterlimit="10" stroke-linecap="round" stroke-linejoin="round"/>
<path d="M26 10H22" stroke="#15616D" stroke-width="2" stroke-miterlimit="10" stroke-linecap="round" stroke-linejoin="round"/>
</svg>
