<svg width="32" height="32" viewBox="0 0 32 32" fill="none" xmlns="http://www.w3.org/2000/svg">
<path d="M24.6668 6.38672C21.2002 12.4534 14.5202 15.9334 7.56016 15.3067L3.3335 14.9201" stroke="#15616D" stroke-width="2" stroke-miterlimit="10" stroke-linecap="round" stroke-linejoin="round"/>
<path d="M7.3335 25.8266C10.8002 19.76 17.4802 16.28 24.4402 16.9066L28.6668 17.2933" stroke="#15616D" stroke-width="2" stroke-miterlimit="10" stroke-linecap="round" stroke-linejoin="round"/>
<path d="M15.9998 29.3333C23.3636 29.3333 29.3332 23.3638 29.3332 16C29.3332 8.63616 23.3636 2.66663 15.9998 2.66663C8.63604 2.66663 2.6665 8.63616 2.6665 16C2.6665 23.3638 8.63604 29.3333 15.9998 29.3333Z" stroke="#15616D" stroke-width="2" stroke-miterlimit="10" stroke-linecap="round" stroke-linejoin="round"/>
<path d="M10.1733 4L14.4133 9.26667C17.2533 12.7867 19.2667 16.88 20.3333 21.2667L21.9467 27.92" stroke="#15616D" stroke-width="2" stroke-miterlimit="10" stroke-linecap="round" stroke-linejoin="round"/>
</svg>
