<svg width="1920" height="890" viewBox="0 0 1920 890" fill="none" xmlns="http://www.w3.org/2000/svg">
<rect width="1920" height="890" fill="#FFECD1"/>
<g opacity="0.03">
<path d="M722.68 747.134C743.86 767.159 766.648 785.399 790.814 801.669H794.641C769.004 785.793 744.911 767.534 722.68 747.134Z" fill="#15616D"/>
<path d="M816.076 816.263C852.823 833.929 888.038 852.363 920.191 870.03H915.598C887.272 851.595 852.823 833.161 816.076 816.263Z" fill="#15616D"/>
<path d="M803.827 808.581L791.578 801.668H787.751H780.861C780.861 801.668 786.985 807.045 798.468 813.19C805.786 817.459 813.473 821.059 821.435 823.943L803.827 808.581Z" fill="#15616D"/>
<path d="M918.661 869.262H913.302L919.427 873.102H924.02L931.675 877.711L950.814 888.464L932.441 877.711L918.661 869.262Z" fill="#15616D"/>
<path d="M526.697 605.803C536.357 626.786 548.71 646.411 563.444 664.179H568.037C551.508 646.836 537.582 627.171 526.697 605.803Z" fill="#15616D"/>
<path d="M696.65 729.467C661.435 712.569 623.923 694.903 585.646 678.773C624.689 695.671 662.201 712.569 696.65 730.235V729.467Z" fill="#15616D"/>
<path d="M585.647 678.773L575.695 671.092L564.212 662.643H559.618C556.889 661.706 553.927 661.706 551.197 662.643C546.604 662.643 551.197 668.019 561.15 674.164C568.856 679.246 577.415 682.889 586.413 684.918L585.647 678.773Z" fill="#15616D"/>
<path d="M358.278 460.633C358.086 482.632 360.659 504.567 365.933 525.921H370.526C363.393 504.847 359.269 482.866 358.278 460.633Z" fill="#15616D"/>
<path d="M503.732 534.37C503.732 541.283 503.732 548.196 503.732 555.109C506.029 548.196 504.497 541.283 503.732 534.37Z" fill="#15616D"/>
<path d="M382.775 540.515C424.115 555.109 463.923 571.239 502.201 587.369C465.455 571.239 425.646 555.109 382.775 540.515Z" fill="#15616D"/>
<path d="M378.181 532.834L366.698 526.689H362.105C358.611 525.621 354.88 525.621 351.387 526.689C345.263 526.689 346.794 533.602 351.387 539.747C359.152 545.528 368.514 548.749 378.181 548.964V532.834Z" fill="#15616D"/>
<path d="M355.216 439.126C354.9 437.348 354.9 435.528 355.216 433.749V439.126Z" fill="#15616D"/>
<path d="M366.698 372.301C366.796 370.511 366.796 368.716 366.698 366.925V372.301Z" fill="#15616D"/>
<path d="M364.403 379.982C364.403 396.112 358.279 411.475 355.982 426.837C358.279 411.475 360.575 396.112 364.403 379.982Z" fill="#15616D"/>
<path d="M217.416 312.39H212.823C204.589 337.389 198.695 363.103 195.215 389.199H199.043C203.088 363.14 209.232 337.452 217.416 312.39Z" fill="#15616D"/>
<path d="M338.372 442.198C298.564 427.604 257.224 413.779 214.353 401.489C256.458 413.779 298.564 427.604 338.372 442.198Z" fill="#15616D"/>
<path d="M214.355 401.489C214.185 399.953 213.686 398.471 212.893 397.146C212.101 395.82 211.033 394.682 209.762 393.808C206.655 391.033 203.004 388.94 199.044 387.663H195.216C191.214 386.511 186.97 386.511 182.967 387.663C174.546 387.663 173.781 396.112 182.967 402.257C190.82 408.295 200.697 411.047 210.527 409.938C211.861 409.777 213.13 409.266 214.205 408.457C215.28 407.648 216.124 406.57 216.652 405.33L214.355 401.489Z" fill="#15616D"/>
<path d="M76.5558 261.695C119.427 270.912 161.532 281.666 202.872 293.955C160.001 278.593 117.13 270.144 76.5558 261.695Z" fill="#15616D"/>
<path d="M103.349 160.306H99.5207C83.4442 190.262 69.6643 219.45 58.181 247.101H62.0088C76.5542 219.45 87.2719 190.262 103.349 160.306Z" fill="#15616D"/>
<path d="M241.148 249.406C241.148 257.855 233.493 266.304 230.431 274.753C233.493 266.304 237.321 257.855 241.148 249.406Z" fill="#15616D"/>
<path d="M71.9614 253.246C69.4813 250.072 65.9512 247.892 62.0093 247.101H58.1815C53.6582 245.963 48.9249 245.963 44.4016 247.101C35.215 247.101 32.1528 257.855 37.5117 263.999C41.2801 267.156 45.7835 269.304 50.6023 270.244C55.4211 271.184 60.3987 270.886 65.0715 269.376C69.4136 269.007 73.4836 267.101 76.5547 263.999C77.3199 261.959 77.2692 259.7 76.4132 257.696C75.5571 255.692 73.962 254.097 71.9614 253.246Z" fill="#15616D"/>
<path d="M13.0144 3.61401L0 24.3527V31.2656L16.8421 4.38209L13.0144 3.61401Z" fill="#15616D"/>
<path d="M91.1005 141.103C60.4785 134.191 30.622 128.814 0 124.973C29.8615 128.792 59.5033 134.176 88.8038 141.103H91.1005Z" fill="#15616D"/>
<path d="M174.546 37.4104L168.422 48.1638L174.546 38.9466V37.4104Z" fill="#15616D"/>
<path d="M127.082 117.292C138.565 96.5538 150.814 75.8151 163.828 54.3083C153.11 75.8151 138.565 96.5538 127.082 117.292Z" fill="#15616D"/>
<path d="M746.412 756.351L808.422 790.915L819.905 797.828H824.498L816.077 793.22L808.422 788.611L746.412 754.047L734.929 747.902H728.805H735.695L746.412 756.351Z" fill="#15616D"/>
<path d="M696.651 719.482L682.871 702.584L671.388 684.918C669.149 681.579 667.348 677.965 666.029 674.164C667.779 677.908 669.827 681.505 672.153 684.918C675.435 691.146 679.279 697.06 683.637 702.584C688.23 707.961 692.058 714.105 697.416 719.482L706.603 729.467H710.431L700.479 719.482H696.651Z" fill="#15616D"/>
<path d="M729.569 749.438L718.086 739.453L707.368 732.54H703.54H695.885L705.071 739.453L717.32 746.365L729.569 749.438Z" fill="#15616D"/>
<path d="M833.685 807.045L821.436 797.828L830.623 803.973L842.106 816.263H847.465C842.495 813.799 837.863 810.701 833.685 807.045Z" fill="#15616D"/>
<path d="M656.077 656.498C655.744 654.98 655.744 653.407 656.077 651.889V656.498Z" fill="#15616D"/>
<path d="M515.982 577.384C512.077 563.806 509.261 549.935 507.561 535.907C507.232 533.872 507.232 531.797 507.561 529.762V524.385V528.994C507.932 531.283 507.932 533.617 507.561 535.907C507.561 542.819 507.561 549.732 507.561 556.645C508.987 563.647 510.776 570.569 512.92 577.384V583.529V588.137C512.588 586.619 512.588 585.047 512.92 583.529L515.982 577.384Z" fill="#15616D"/>
<path d="M635.407 592.746C634.936 593.982 634.936 595.35 635.407 596.586V592.746Z" fill="#15616D"/>
<path d="M557.32 613.484L586.411 627.31L598.66 633.455L626.22 647.281L639.234 654.194H644.593L636.937 650.353L626.985 644.976C604.784 633.455 581.818 621.933 558.086 611.18L548.899 606.571L535.885 602.731H543.54L557.32 613.484Z" fill="#15616D"/>
<path d="M528.995 600.427L519.809 585.833H510.622C512.481 588.756 514.809 591.352 517.512 593.514L528.995 600.427Z" fill="#15616D"/>
<path d="M510.622 432.213C510.955 433.99 510.955 435.813 510.622 437.59V432.213Z" fill="#15616D"/>
<path d="M359.809 432.213C359.443 425.049 359.443 417.871 359.809 410.706L364.402 388.431V379.982V375.374H360.574C360.672 377.165 360.672 378.96 360.574 380.75V388.431C360.574 404.562 354.45 419.923 352.153 435.285V432.213C351.838 433.991 351.838 435.811 352.153 437.59H355.981C355.623 436.075 355.623 434.496 355.981 432.981L359.809 432.213Z" fill="#15616D"/>
<path d="M394.259 466.009L470.814 498.27L482.297 503.646L490.718 507.487H485.359L471.579 500.574L395.024 468.314H385.838L375.12 463.705L382.775 462.937L394.259 466.009Z" fill="#15616D"/>
<path d="M368.995 462.169C368.995 462.169 373.588 462.169 373.588 458.328C372.489 455.128 370.653 452.233 368.229 449.879L358.277 442.966H354.449C350.915 442.22 347.265 442.22 343.732 442.966C342.475 443.052 341.258 443.447 340.19 444.117C339.121 444.786 338.234 445.711 337.607 446.807C338.706 450.007 340.542 452.902 342.966 455.256L353.684 462.169C356.086 463.274 358.697 463.845 361.339 463.845C363.982 463.845 366.593 463.274 368.995 462.169Z" fill="#15616D"/>
<path d="M410.336 267.84L406.508 278.593L410.336 270.912V267.84Z" fill="#15616D"/>
<path d="M382.775 331.592C382.775 323.143 388.9 315.462 392.727 307.013C382.775 315.462 382.775 323.143 382.775 331.592Z" fill="#15616D"/>
<path d="M229.665 278.593C229.665 270.144 236.555 261.695 240.383 253.246C244.002 244.33 248.091 235.612 252.632 227.131C253.589 224.18 254.873 221.345 256.46 218.682V211.769L257.225 201.783L250.335 215.609L241.149 235.58L236.555 247.869L229.665 273.985V283.202V287.811V281.666V278.593Z" fill="#15616D"/>
<path d="M257.99 314.694C284.019 323.143 310.048 333.128 334.545 343.113L345.263 346.954L355.215 351.563L336.076 340.041L306.22 328.52L292.44 323.143L259.521 311.621L244.976 307.013H238.086H246.507L257.99 314.694Z" fill="#15616D"/>
<path d="M229.665 312.389C231.196 312.218 232.673 311.718 233.994 310.923C235.315 310.128 236.45 309.056 237.321 307.781C237.936 306.458 238.255 305.016 238.255 303.556C238.255 302.097 237.936 300.655 237.321 299.332C234.679 296.176 231.242 293.789 227.369 292.419H208.995C207.378 292.618 205.834 293.212 204.5 294.15C203.165 295.087 202.08 296.339 201.34 297.796C200.51 300.55 200.51 303.49 201.34 306.245C203.82 309.419 207.35 311.599 211.292 312.389H215.885C220.332 314.036 225.218 314.036 229.665 312.389Z" fill="#15616D"/>
<path d="M278.659 164.147C289.377 144.944 300.094 125.742 312.343 105.771C300.094 124.973 289.377 144.944 278.659 164.147Z" fill="#15616D"/>
<path d="M147.751 158.002L180.67 167.219H192.919L229.665 181.045L244.211 186.421H250.335H243.445L229.665 177.972L200.574 168.755L179.139 163.378L153.11 154.929H137.034H130.909H136.268L147.751 158.002Z" fill="#15616D"/>
<path d="M117.895 133.423L122.488 124.974L127.081 117.293C138.564 96.5539 150.813 75.8153 163.828 54.3085L168.421 48.1637L174.545 38.9465L169.952 45.8594L163.062 55.8447C150.813 77.3515 137.799 98.0901 127.081 118.061L117.129 124.974V131.887L117.895 133.423Z" fill="#15616D"/>
<path d="M116.364 158.77C119.909 157.562 123.076 155.443 125.551 152.625C126.507 151.136 127.015 149.403 127.015 147.632C127.015 145.862 126.507 144.128 125.551 142.64C123.596 139.619 120.596 137.43 117.13 136.495H114.068C109.544 135.357 104.811 135.357 100.288 136.495C96.4575 137.956 93.224 140.659 91.1011 144.176C90.3631 145.599 89.9777 147.18 89.9777 148.785C89.9777 150.389 90.3631 151.97 91.1011 153.393C93.576 156.211 96.7433 158.33 100.288 159.538H104.115C108.199 160.296 112.406 160.032 116.364 158.77Z" fill="#15616D"/>
<path d="M164.593 15.9035H159.234L143.923 11.295L114.832 3.61397L94.9276 -0.99462L65.8367 -7.1394H49.7601H43.6357H53.5879H65.8367C91.8654 -2.53081 117.894 2.84586 142.392 9.75875H153.875H163.827L164.593 15.9035Z" fill="#15616D"/>
<path d="M848.229 816.263C877.32 834.697 904.114 853.131 924.784 871.566C903.349 850.827 877.32 833.161 848.229 816.263Z" fill="#15616D"/>
<path d="M926.316 867.725C908.444 852.075 892.277 834.567 878.087 815.494C892.566 834.324 908.708 851.805 926.316 867.725Z" fill="#15616D"/>
<path d="M780.096 739.453L786.986 749.438C795.431 761.292 804.637 772.581 814.545 783.234L823.732 793.219H827.56L816.842 782.466C806.552 771.944 797.083 760.646 788.517 748.67L782.392 738.684L780.096 739.453Z" fill="#15616D"/>
<path d="M848.229 816.263L840.573 810.118L831.387 803.973H827.559L839.808 813.19C845.239 818.046 851.451 821.942 858.181 824.712L848.229 816.263Z" fill="#15616D"/>
<path d="M922.488 865.421L927.081 869.261L933.205 873.87L946.985 884.623L933.971 873.87L925.55 867.725L922.488 865.421Z" fill="#15616D"/>
<path d="M765.551 726.395H760.958L750.24 719.482L728.039 705.656L715.79 697.975L688.996 681.077L677.513 674.164H672.154H679.044L688.996 679.541C709.666 691.063 728.805 703.352 747.943 714.874C750.447 717.105 753.29 718.92 756.364 720.25L763.254 724.859L765.551 726.395Z" fill="#15616D"/>
<path d="M656.076 651.889C655.803 649.85 655.803 647.784 656.076 645.745L649.186 625.774L644.593 605.803C644.593 605.803 644.593 605.803 644.593 599.659V595.05V598.891C644.179 601.434 644.179 604.028 644.593 606.572L649.186 625.774L656.076 644.977V651.889Z" fill="#15616D"/>
<path d="M672.154 671.092C670.761 667.855 668.669 664.969 666.029 662.643L656.077 655.73C653.294 655.209 650.439 655.209 647.656 655.73C649.142 658.69 651.228 661.306 653.78 663.411L664.498 670.324C664.498 670.324 669.857 670.324 671.388 670.324L672.154 671.092Z" fill="#15616D"/>
<path d="M633.877 574.311V569.703C633.517 571.218 633.517 572.796 633.877 574.311Z" fill="#15616D"/>
<path d="M621.627 575.08L607.081 566.63L583.349 553.573L568.038 545.124L535.885 529.762L524.402 524.385H517.512L525.167 528.226L535.885 532.066L602.488 567.399L610.144 572.007L619.33 577.384L621.627 575.08Z" fill="#15616D"/>
<path d="M506.028 509.023V496.734C506.729 481.772 508.52 466.883 511.387 452.184C511.815 449.642 511.815 447.045 511.387 444.503V439.894V445.271C511.387 445.271 511.387 449.88 511.387 452.184C508.221 466.856 506.174 481.749 505.262 496.734V509.023H506.028Z" fill="#15616D"/>
<path d="M519.808 520.544C520.054 518.392 519.764 516.213 518.962 514.201C518.16 512.19 516.872 510.41 515.214 509.023H506.028H502.2H492.248C492.248 509.023 492.248 509.023 487.654 509.023C487.825 510.559 488.323 512.041 489.116 513.366C489.909 514.692 490.977 515.83 492.248 516.704L502.2 524.385C505.223 525.076 508.363 525.076 511.386 524.385C511.386 524.385 511.386 524.385 511.386 520.544H519.808Z" fill="#15616D"/>
<path d="M529.761 382.287C529.761 389.2 525.168 395.344 523.637 401.489C525.168 395.344 527.465 389.2 529.761 382.287Z" fill="#15616D"/>
<path d="M535.886 355.403C535.886 363.084 528.996 370.765 525.934 378.446C531.293 366.925 535.886 359.244 535.886 355.403Z" fill="#15616D"/>
<path d="M527.465 376.91C527.465 384.591 522.106 392.272 519.809 399.953C522.106 392.272 525.168 384.591 527.465 376.91Z" fill="#15616D"/>
<path d="M499.904 415.315H493.78L480.765 408.402L447.081 392.272L411.1 375.374L402.679 371.533L390.43 363.084H397.32L410.335 369.229L445.55 385.359L480.765 402.257L492.249 408.402L499.139 412.242L499.904 415.315Z" fill="#15616D"/>
<path d="M382.775 346.954C382.34 344.929 382.34 342.834 382.775 340.809V333.128C388.899 316.23 395.789 299.332 403.445 281.666V275.521L407.273 267.84H403.445V272.448L399.617 278.593L388.899 303.941C388.899 312.39 382.01 320.071 378.947 328.52V336.969C378.615 338.487 378.615 340.059 378.947 341.577L382.775 346.954Z" fill="#15616D"/>
<path d="M390.431 363.084C391.423 360.093 391.423 356.859 390.431 353.867C388.414 351.028 385.801 348.668 382.776 346.954C378.984 346.209 375.084 346.209 371.292 346.954C371.292 346.954 365.168 346.954 364.402 351.563C363.787 352.885 363.468 354.327 363.468 355.787C363.468 357.247 363.787 358.689 364.402 360.012C367.2 362.991 370.591 365.346 374.354 366.925H378.182C381.675 367.993 385.407 367.993 388.9 366.925C391.688 366.302 394.144 364.659 395.79 362.316C395.79 362.316 390.431 363.852 390.431 363.084Z" fill="#15616D"/>
<path d="M398.086 246.333H393.493L378.182 239.42L306.22 205.624L291.674 201.783H284.019H290.909L306.22 208.696L336.842 220.986L352.153 227.899L379.713 239.42L397.32 247.101L398.086 246.333Z" fill="#15616D"/>
<path d="M274.066 181.045V176.436L280.191 165.683L296.267 137.263L313.109 108.075L317.703 101.162L323.062 91.9453C323.314 94.2426 323.314 96.5609 323.062 98.8582L316.937 108.843C304.688 128.814 293.971 148.017 283.253 167.219C282.98 169.258 282.98 171.325 283.253 173.364L277.894 182.581L274.066 181.045Z" fill="#15616D"/>
<path d="M284.018 201.783C284.411 199.754 284.411 197.668 284.018 195.639C283.241 193.83 282.087 192.21 280.635 190.885C279.183 189.56 277.465 188.562 275.597 187.958H271.77C267.767 186.805 263.523 186.805 259.521 187.958C257.598 188.125 255.749 188.776 254.143 189.85C252.537 190.924 251.227 192.386 250.334 194.102C249.653 195.543 249.3 197.117 249.3 198.711C249.3 200.305 249.653 201.879 250.334 203.32C252.165 202.981 253.96 202.466 255.693 201.783H259.521C263.459 203.326 267.831 203.326 271.77 201.783C275.263 202.852 278.994 202.852 282.487 201.783H284.018Z" fill="#15616D"/>
<path d="M204.403 -10.212L249.57 -77.0366C251.608 -79.4107 253.403 -81.9839 254.929 -84.7176L262.585 -95.4709H258.757L245.742 -77.0366L229.666 -56.2979L214.355 -34.0231L199.044 -10.9801L189.857 3.61381V-0.2267L204.403 -10.212Z" fill="#15616D"/>
<path d="M218.949 35.8742C244.212 44.3232 270.24 52.7723 295.504 62.7576L306.221 67.3662H315.408H310.049L294.738 61.2214L261.054 48.1637L221.245 32.8018H209.762H199.81H208.996L218.949 35.8742Z" fill="#15616D"/>
<path d="M174.545 37.4101C178.809 38.5505 183.296 38.5505 187.559 37.4101C191.698 35.7566 195.376 33.121 198.277 29.7292C199.233 28.2406 199.741 26.5073 199.741 24.7365C199.741 22.9657 199.233 21.2324 198.277 19.7439C197.795 17.897 196.832 16.2121 195.487 14.8622C194.141 13.5123 192.462 12.5461 190.621 12.0629C186.349 10.9898 181.879 10.9898 177.607 12.0629C173.247 13.7131 169.319 16.3402 166.124 19.7439C165.377 21.3017 164.99 23.008 164.99 24.7365C164.99 26.465 165.377 28.1714 166.124 29.7292C166.901 31.5373 168.055 33.158 169.507 34.4826C170.959 35.8073 172.677 36.8054 174.545 37.4101Z" fill="#15616D"/>
<path d="M848.995 787.843L801.531 751.742L794.641 747.134L787.751 739.453L793.875 744.061L801.531 749.438C819.138 760.959 834.449 773.249 849.76 785.539L855.885 790.147L862.009 795.524L855.885 790.915L848.995 787.843Z" fill="#15616D"/>
<path d="M748.708 666.483C748.708 666.483 748.708 671.092 748.708 673.396C752.277 686.545 756.885 699.387 762.488 711.801V717.178V722.554V717.946V711.801C759.611 705.797 757.056 699.644 754.832 693.367C752.694 687.33 750.905 681.175 749.473 674.932C749.115 672.642 749.115 670.31 749.473 668.019L748.708 666.483Z" fill="#15616D"/>
<path d="M787.75 739.453L781.626 731.772L773.205 724.859C771.224 724.156 769.062 724.156 767.081 724.859C768.567 727.819 770.653 730.435 773.205 732.54L782.392 739.453H787.75Z" fill="#15616D"/>
<path d="M868.9 807.045C865.557 803.63 862.721 799.749 860.479 795.524L866.603 802.437L874.259 810.118L868.9 807.045Z" fill="#15616D"/>
<path d="M636.173 564.326V542.051C635.421 535.159 635.421 528.205 636.173 521.313C635.817 518.765 635.817 516.179 636.173 513.632V509.023C635.745 511.565 635.745 514.162 636.173 516.704C635.421 523.596 635.421 530.55 636.173 537.443C635.791 544.35 635.791 551.274 636.173 558.181V564.326Z" fill="#15616D"/>
<path d="M745.646 648.817C745.287 647.302 745.287 645.723 745.646 644.208V648.817Z" fill="#15616D"/>
<path d="M666.03 603.499L692.824 621.165L718.853 638.064L730.336 646.513H725.743L715.791 639.6C697.417 627.31 679.044 614.252 659.14 601.963H653.016L643.063 596.586L648.422 600.427L666.03 603.499Z" fill="#15616D"/>
<path d="M638.469 595.05H646.124C646.124 595.05 646.124 595.05 646.124 591.21C645.889 589.35 645.373 587.537 644.593 585.833C642.237 583.083 639.678 580.516 636.938 578.152C636.938 578.152 630.048 578.152 627.751 578.152C630.491 584.682 635.346 590.094 641.531 593.514L638.469 595.05Z" fill="#15616D"/>
<path d="M645.359 489.82C645.359 489.82 645.359 485.212 645.359 483.676C645.359 482.139 646.124 487.516 645.359 489.82Z" fill="#15616D"/>
<path d="M523.636 401.489C523.636 395.344 523.636 389.2 529.76 382.287C535.885 375.374 529.76 375.374 529.76 372.301L537.416 353.099L542.009 342.346V347.722C542.009 347.722 535.885 348.49 535.885 355.403C535.885 362.316 528.995 370.765 525.933 378.446C525.933 386.127 520.574 393.808 518.277 401.489V410.706V414.547C519.334 409.928 521.145 405.516 523.636 401.489Z" fill="#15616D"/>
<path d="M547.368 443.734L578.756 461.401L608.612 479.067L620.095 486.748H625.454L612.44 478.299L586.411 462.937L577.224 457.56L548.899 441.43L535.885 432.213H528.995L537.416 436.822L547.368 443.734Z" fill="#15616D"/>
<path d="M514.45 436.053C517.422 437.108 520.665 437.108 523.637 436.053C524.931 436.147 526.222 435.826 527.323 435.135C528.424 434.445 529.278 433.422 529.761 432.213C530.591 429.458 530.591 426.519 529.761 423.764C528.047 420.284 525.395 417.357 522.105 415.315C518.825 414.609 515.433 414.609 512.153 415.315C510.819 415.476 509.551 415.987 508.476 416.796C507.401 417.605 506.557 418.683 506.029 419.923C505.199 422.678 505.199 425.618 506.029 428.372C508.438 431.562 511.271 434.405 514.45 436.822V436.053Z" fill="#15616D"/>
<path d="M429.473 228.667L443.253 201.783V195.639L459.329 174.132L466.219 162.61L459.329 172.596L448.612 190.262L438.659 207.928L427.942 227.131L423.348 237.116L429.473 228.667Z" fill="#15616D"/>
<path d="M448.611 273.217L517.511 310.085L526.697 314.694C529.433 316.997 532.539 318.816 535.884 320.071L528.229 315.462L517.511 309.317L450.142 270.912L441.721 267.072L431.004 261.695L442.487 267.84L448.611 273.217Z" fill="#15616D"/>
<path d="M410.335 267.84C413.828 268.908 417.56 268.908 421.053 267.84C424.431 267.166 427.435 265.248 429.474 262.463C430.582 259.228 430.582 255.713 429.474 252.478C427.438 249.177 424.521 246.516 421.053 244.797C417.315 243.618 413.307 243.618 409.569 244.797C407.836 244.94 406.164 245.505 404.697 246.442C403.23 247.378 402.012 248.659 401.148 250.174C400.032 253.144 400.032 256.42 401.148 259.391C402.892 263.103 405.87 266.09 409.569 267.84H410.335Z" fill="#15616D"/>
<path d="M486.124 132.654V125.741C486.345 128.04 486.345 130.355 486.124 132.654Z" fill="#15616D"/>
<path d="M368.995 93.4816C392.727 104.235 417.225 115.756 440.192 128.046L452.44 134.191H459.33H451.675L442.488 124.974C418.756 113.452 395.024 101.163 370.527 90.4092H360.574L350.622 85.8005H357.512L368.995 93.4816Z" fill="#15616D"/>
<path d="M343.732 62.7574L354.45 48.1635L372.823 22.0481L378.182 13.599L397.321 -14.0525L404.976 -28.6464L409.57 -35.5593L401.914 -24.8059L397.321 -18.6611L350.622 48.1635L344.498 57.3806L339.905 64.2935L343.732 62.7574Z" fill="#15616D"/>
<path d="M326.125 90.4091C330.384 91.5864 334.88 91.5864 339.139 90.4091C342.736 89.3108 345.932 87.1735 348.326 84.2643C349.087 82.5746 349.48 80.7418 349.48 78.8876C349.48 77.0335 349.087 75.2006 348.326 73.5109C346.648 70.007 343.987 67.0706 340.67 65.0618C336.407 63.9215 331.92 63.9215 327.656 65.0618C323.782 66.4317 320.345 68.819 317.704 71.9747C316.534 75.1996 316.534 78.7351 317.704 81.96C319.429 85.2337 322.096 87.9102 325.359 89.641L326.125 90.4091Z" fill="#15616D"/>
<path d="M880.382 816.263C900.329 833.581 919.006 852.32 936.267 872.334C918.839 852.477 900.173 833.749 880.382 816.263Z" fill="#15616D"/>
<path d="M935.501 868.493C924.7 851.96 915.958 834.161 909.473 815.494C915.631 834.297 924.393 852.138 935.501 868.493Z" fill="#15616D"/>
<path d="M842.105 739.453C841.665 743.023 841.665 746.635 842.105 750.206C846.256 762.129 851.377 773.689 857.416 784.77L863.541 795.524L856.651 784.77L848.995 768.64C848.995 763.264 845.168 757.119 842.871 751.742C841.959 747.714 841.7 743.564 842.105 739.453Z" fill="#15616D"/>
<path d="M880.382 816.262L874.258 808.581H870.43H865.837C868.079 812.807 870.915 816.687 874.258 820.103L885.741 830.088L880.382 816.262Z" fill="#15616D"/>
<path d="M937.033 870.03L933.205 865.421C933.205 865.421 933.205 865.421 933.205 869.261V873.87L943.157 885.391C940.101 881.741 937.288 877.892 934.736 873.87L937.033 870.03Z" fill="#15616D"/>
<path d="M842.106 725.627C842.465 724.112 842.465 722.533 842.106 721.018V725.627Z" fill="#15616D"/>
<path d="M818.373 713.337L799.234 697.207L793.11 691.83L773.205 675.7L765.55 669.555L759.425 662.643L765.55 667.251L772.44 672.628L793.11 688.758L799.234 693.367L818.373 710.265L825.263 716.409L829.856 720.25L818.373 713.337Z" fill="#15616D"/>
<path d="M747.177 585.833C747.535 587.348 747.535 588.926 747.177 590.441C747.549 592.731 747.549 595.065 747.177 597.354C746.037 610.9 746.037 624.518 747.177 638.064C747.177 638.064 747.177 642.672 747.177 644.976C746.819 646.492 746.819 648.07 747.177 649.585V644.976C747.177 644.976 747.177 640.368 747.177 638.832C746.03 625.03 746.03 611.156 747.177 597.354C747.177 597.354 747.177 592.746 747.177 590.441V585.833Z" fill="#15616D"/>
<path d="M759.425 662.643C758.946 659.755 757.612 657.079 755.598 654.962L748.708 647.281C746.498 646.384 744.027 646.384 741.818 647.281C742.934 650.069 744.485 652.661 746.411 654.962L754.067 662.643H760.191C760.191 662.643 759.425 666.483 759.425 662.643Z" fill="#15616D"/>
<path d="M765.55 509.023C760.192 524.385 754.833 538.979 751.005 552.805C757.129 539.747 765.55 525.153 765.55 509.023Z" fill="#15616D"/>
<path d="M738.756 566.63L731.866 561.254L724.976 555.877L670.622 516.704L662.967 509.023H655.311L662.967 514.4L670.622 519.776C689.761 532.834 708.134 545.124 724.976 558.181L734.163 565.862H739.522L738.756 566.63Z" fill="#15616D"/>
<path d="M645.359 489.82C645.359 489.82 645.359 485.212 645.359 483.676C645.359 482.139 645.359 479.067 645.359 477.531C649.952 462.169 655.311 446.807 661.435 431.445C661.308 428.886 661.308 426.323 661.435 423.764V418.387C661.184 420.171 661.184 421.981 661.435 423.764V431.445C655.311 446.807 649.952 462.169 645.359 477.531C645.359 477.531 645.359 482.139 645.359 484.444V489.82Z" fill="#15616D"/>
<path d="M655.312 509.023C656.142 506.268 656.142 503.329 655.312 500.574C653.871 497.354 651.462 494.668 648.422 492.893C645.399 492.201 642.259 492.201 639.236 492.893C638.071 492.954 636.947 493.349 635.998 494.029C635.048 494.709 634.313 495.648 633.877 496.733C633.276 499.517 633.276 502.398 633.877 505.182C635.826 508.284 638.441 510.908 641.532 512.863H649.953C650.768 513.335 651.692 513.584 652.633 513.584C653.573 513.584 654.497 513.335 655.312 512.863V509.023Z" fill="#15616D"/>
<path d="M711.196 332.36C701.244 349.258 692.058 365.388 683.637 381.518C688.996 365.388 701.244 349.258 711.196 332.36Z" fill="#15616D"/>
<path d="M660.669 396.112L651.482 389.967L644.592 385.359C624.688 371.533 604.784 358.475 583.348 345.418L574.927 340.041L565.74 334.664H571.099L583.348 341.577L611.673 360.012H616.267L644.592 378.446L655.31 386.127H660.669V396.112Z" fill="#15616D"/>
<path d="M558.086 316.998V309.317V303.172C567.272 286.274 576.459 268.608 587.177 250.942L591.77 244.029L587.177 251.71C576.617 268.358 566.907 285.535 558.086 303.172L553.493 312.39V316.998H558.086Z" fill="#15616D"/>
<path d="M565.741 334.664C565.741 334.664 565.741 329.288 565.741 325.447C564.128 322.133 561.769 319.241 558.851 316.998C555.358 315.929 551.627 315.929 548.133 316.998C546.572 317.05 545.05 317.5 543.71 318.307C542.371 319.113 541.258 320.249 540.478 321.607C539.361 324.577 539.361 327.854 540.478 330.824C542.466 334.357 545.377 337.279 548.899 339.273C552.124 340.385 555.626 340.385 558.851 339.273C560.353 339.378 561.855 339.077 563.201 338.401C564.548 337.726 565.689 336.701 566.507 335.432C566.507 335.432 565.741 336.2 565.741 334.664Z" fill="#15616D"/>
<path d="M595.598 213.305L589.474 209.464L577.991 201.783L546.603 182.581L514.45 164.146L504.498 158.002L496.077 153.393L504.498 157.234L515.215 163.378L576.459 201.783L585.646 207.928L593.302 212.537L595.598 213.305Z" fill="#15616D"/>
<path d="M486.124 132.655C487.967 130.295 489.51 127.715 490.717 124.974L496.842 116.524C502.966 106.539 509.856 97.322 516.746 87.3367L535.885 58.1489L543.54 48.1636C545.506 45.7339 547.296 43.1671 548.899 40.4827C546.69 42.7183 544.878 45.3159 543.54 48.1636C540.529 50.524 537.94 53.3811 535.885 56.6127C521.339 76.5833 507.559 95.7858 494.545 114.988L488.421 124.974L483.062 133.423L486.124 132.655Z" fill="#15616D"/>
<path d="M493.014 151.857C493.373 149.567 493.373 147.234 493.014 144.944C491.631 141.28 489.242 138.085 486.124 135.727C482.122 134.574 477.877 134.574 473.875 135.727C471.705 134.397 469.239 133.63 466.699 133.496C464.16 133.362 461.627 133.865 459.33 134.959C458.013 136.88 457.308 139.156 457.308 141.488C457.308 143.819 458.013 146.096 459.33 148.017C460.713 151.68 463.102 154.876 466.22 157.234C469.964 158.366 473.958 158.366 477.703 157.234C481.307 156.6 484.566 154.693 486.89 151.857H493.014Z" fill="#15616D"/>
<path d="M452.441 -28.6463L522.872 9.7586H528.996L541.245 16.6715L526.699 8.2224L495.312 -10.212H490.719L457.034 -28.6463L447.848 -33.2549L437.896 -37.8635H444.786L452.441 -28.6463Z" fill="#15616D"/>
<path d="M904.115 797.06C904.189 795.781 904.189 794.499 904.115 793.219V797.06Z" fill="#15616D"/>
<path d="M891.865 787.075C881.269 774.219 870.027 761.913 858.181 750.206L854.354 746.366L848.229 739.453L855.119 746.366C867.368 758.655 878.851 770.945 888.803 782.466L893.397 788.611V793.22V789.379L891.865 787.075Z" fill="#15616D"/>
<path d="M835.981 662.643V666.483C835.609 668.772 835.609 671.107 835.981 673.396C835.613 680.048 835.613 686.715 835.981 693.367C835.581 699.761 835.581 706.174 835.981 712.569C836.355 714.6 836.355 716.683 835.981 718.714C835.981 718.714 835.981 718.714 835.981 712.569C834.834 699.537 834.834 686.428 835.981 673.396C835.981 673.396 835.981 669.555 835.981 667.251C836.648 666.115 837.532 665.123 838.584 664.332C839.635 663.541 840.831 662.967 842.105 662.643H835.981Z" fill="#15616D"/>
<path d="M848.23 739.452C847.277 736.742 845.991 734.162 844.402 731.771L842.105 725.627C842.105 725.627 837.512 725.627 836.746 725.627L840.574 733.308C840.727 735.429 841.245 737.508 842.105 739.452C843.591 739.98 845.212 739.98 846.699 739.452H848.23Z" fill="#15616D"/>
<path d="M903.35 806.277C901.627 802.869 900.341 799.256 899.522 795.524C899.522 795.524 899.522 799.364 899.522 802.437L904.881 810.118L903.35 806.277Z" fill="#15616D"/>
<path d="M848.996 615.789C848.996 622.702 845.168 628.846 843.637 634.991C842.106 628.846 846.699 622.702 848.996 615.789Z" fill="#15616D"/>
<path d="M818.373 634.223L798.469 615.789L777.799 597.354L765.55 585.833L770.909 589.673L778.565 595.818L797.703 612.716L805.359 619.629L822.201 634.991L830.622 643.44H826.029L818.373 634.223Z" fill="#15616D"/>
<path d="M773.206 498.27V502.11C770.824 504.597 768.266 506.907 765.551 509.023C760.192 524.385 754.833 538.979 751.005 552.805C751.434 555.347 751.434 557.943 751.005 560.486C750.647 558.195 750.647 555.863 751.005 553.573C754.466 538.551 759.336 523.892 765.551 509.791C765.251 508.012 765.251 506.194 765.551 504.414V498.27H773.206Z" fill="#15616D"/>
<path d="M765.551 585.833C766.151 583.049 766.151 580.168 765.551 577.384C763.958 574.266 761.892 571.415 759.426 568.935C756.962 567.989 754.236 567.989 751.771 568.935C750.674 568.919 749.609 569.298 748.766 570.002C747.924 570.707 747.36 571.69 747.178 572.775C746.235 575.248 746.235 577.983 747.178 580.456C748.77 583.574 750.836 586.424 753.302 588.905C755.551 589.567 757.943 589.567 760.192 588.905L765.551 585.833Z" fill="#15616D"/>
<path d="M688.996 383.823C692.364 376.416 696.199 369.233 700.479 362.316V356.171L713.494 334.665L718.852 326.215V321.607C717.306 323.472 716.018 325.54 715.025 327.752L710.431 334.665C700.479 351.563 691.293 367.693 682.872 383.823V391.504C683.123 393.287 683.123 395.097 682.872 396.881L688.996 383.823Z" fill="#15616D"/>
<path d="M700.478 432.213L727.272 452.184C735.693 459.096 744.88 465.241 752.535 472.154L760.956 479.067L766.315 483.676H761.722L753.301 475.995C744.88 469.082 736.459 462.169 727.272 456.024L700.478 436.053L688.995 417.619L695.884 422.996L700.478 432.213Z" fill="#15616D"/>
<path d="M669.856 418.387H679.043C680.126 418.875 681.3 419.127 682.488 419.127C683.675 419.127 684.849 418.875 685.933 418.387C687.05 415.417 687.05 412.14 685.933 409.17C684.882 405.75 682.728 402.778 679.809 400.721C676.836 399.667 673.594 399.667 670.622 400.721C669.538 400.233 668.364 399.982 667.177 399.982C665.989 399.982 664.815 400.233 663.732 400.721C662.615 403.691 662.615 406.968 663.732 409.938C664.878 413.31 667.013 416.255 669.856 418.387Z" fill="#15616D"/>
<path d="M628.516 201.783C634.641 192.566 640.765 183.349 647.655 174.9L667.559 147.248L672.918 140.335L679.043 124.973V129.582C675.825 132.823 672.999 136.432 670.622 140.335L653.014 164.146L647.655 171.059L631.579 194.87L624.689 205.624V201.783H628.516Z" fill="#15616D"/>
<path d="M639.233 245.565C659.903 260.159 679.808 273.985 698.946 288.579L706.602 293.955L715.023 300.1H710.43L698.946 290.883L672.918 271.68L667.559 267.84L639.233 248.637L630.047 241.725L622.391 237.116L628.516 240.956L639.233 245.565Z" fill="#15616D"/>
<path d="M603.253 237.116C606.73 238.287 610.493 238.287 613.971 237.116C615.571 237.147 617.158 236.819 618.615 236.154C620.073 235.49 621.363 234.506 622.392 233.275C623.138 231.718 623.526 230.011 623.526 228.283C623.526 226.554 623.138 224.848 622.392 223.29C621.564 219.56 619.38 216.274 616.267 214.073H612.44C608.663 213.189 604.733 213.189 600.956 214.073C599.223 214.216 597.551 214.781 596.084 215.718C594.617 216.654 593.399 217.935 592.535 219.45C591.365 222.675 591.365 226.21 592.535 229.435C593.685 233.222 596.123 236.484 599.425 238.652L603.253 237.116Z" fill="#15616D"/>
<path d="M707.369 85.0325C722.68 65.83 738.757 47.3956 755.599 28.1931C738.757 48.1637 722.68 65.83 707.369 85.0325Z" fill="#15616D"/>
<path d="M590.239 48.1636L620.096 68.1342H625.455L654.546 88.8728L668.325 98.09L661.435 92.7133L651.483 85.8004L591.77 48.1636L584.115 43.555L574.163 35.874L590.239 48.1636Z" fill="#15616D"/>
<path d="M569.57 15.1353L574.929 7.45431L581.819 -0.994747C597.895 -21.7334 613.972 -42.4721 631.58 -63.2108L644.594 -78.5728L639.235 -72.428C636.194 -69.0348 633.38 -65.4424 630.814 -61.6746C622.393 -52.4574 614.737 -42.4721 607.082 -33.2549L584.881 -4.06714L577.226 5.15004L572.632 12.0629L569.57 15.1353Z" fill="#15616D"/>
<path d="M541.245 19.7441C540.484 21.4337 540.09 23.2666 540.09 25.1207C540.09 26.9749 540.484 28.8078 541.245 30.4974C542.61 34.3841 544.989 37.8323 548.135 40.4827C552.086 41.9535 556.432 41.9535 560.383 40.4827C564.356 39.6398 568.046 37.7886 571.101 35.106C572.277 31.3561 572.277 27.3345 571.101 23.5845C570.273 19.8548 568.09 16.5686 564.977 14.3673C560.718 13.1901 556.221 13.1901 551.962 14.3673C547.939 15.0585 544.21 16.9294 541.245 19.7441Z" fill="#15616D"/>
<path d="M944.689 870.03C939.465 851.569 937.649 832.306 939.33 813.19C937.561 832.306 939.378 851.586 944.689 870.03Z" fill="#15616D"/>
<path d="M912.537 816.263C925.375 833.92 936.162 852.99 944.69 873.102C936.116 853.651 925.599 835.122 913.303 817.799L912.537 816.263Z" fill="#15616D"/>
<path d="M901.053 739.453V743.293C901.053 743.293 901.053 747.902 901.053 749.438C899.515 761.936 899.515 774.577 901.053 787.075C900.724 789.11 900.724 791.185 901.053 793.22C901.127 794.499 901.127 795.781 901.053 797.06C901.053 797.06 901.053 792.451 901.053 790.147C900.676 784.521 900.676 778.875 901.053 773.249V753.278C901.053 753.278 901.053 748.67 901.053 746.366V739.453Z" fill="#15616D"/>
<path d="M909.473 806.277C910.292 810.009 911.578 813.622 913.3 817.031L920.956 827.784L909.473 806.277Z" fill="#15616D"/>
<path d="M946.22 872.334C946.364 870.801 946.364 869.258 946.22 867.725C946.22 867.725 946.22 867.725 946.22 871.566C946.22 871.566 946.22 871.566 946.22 875.406L950.814 886.928C949.269 883.182 947.99 879.332 946.986 875.406C946.682 874.395 946.426 873.37 946.22 872.334Z" fill="#15616D"/>
<path d="M904.116 722.554C903.756 721.039 903.756 719.461 904.116 717.946V722.554Z" fill="#15616D"/>
<path d="M889.57 711.801C879.275 698.184 868.288 685.109 856.651 672.628L852.058 668.019L846.699 662.643L851.292 668.019L856.651 672.628C867.879 685.43 878.597 698.487 888.804 711.801L892.632 716.409L896.46 721.786C896.24 720.258 896.24 718.706 896.46 717.178L889.57 711.801Z" fill="#15616D"/>
<path d="M859.713 580.456V585.065V591.978C854.337 605.454 849.986 619.319 846.699 633.455V639.6C846.699 639.6 846.699 639.6 846.699 644.976C846.408 642.424 846.408 639.847 846.699 637.295C846.699 631.151 846.699 625.006 852.058 618.093C853.668 611.465 855.978 605.027 858.948 598.89C858.948 598.89 858.948 593.514 858.948 590.441L859.713 580.456Z" fill="#15616D"/>
<path d="M846.699 662.643C847.38 659.868 847.38 656.969 846.699 654.194C846.971 651.641 846.971 649.066 846.699 646.513C845.733 646.09 844.69 645.871 843.636 645.871C842.583 645.871 841.54 646.09 840.574 646.513C840.283 649.065 840.283 651.642 840.574 654.194C841.987 656.997 843.792 659.583 845.933 661.875C847.672 662.46 849.553 662.46 851.292 661.875L846.699 662.643Z" fill="#15616D"/>
<path d="M901.818 509.023C892.631 523.617 883.445 538.979 875.789 552.805C883.445 537.443 892.631 522.081 901.818 509.023Z" fill="#15616D"/>
<path d="M845.933 549.732L802.297 509.023L796.172 502.878L790.048 498.27L795.407 502.878L802.297 509.023L845.933 550.5L849.761 555.109L855.885 562.022L851.292 557.413L845.933 549.732Z" fill="#15616D"/>
<path d="M823.731 406.098V409.938L818.372 419.155L804.592 441.43L792.344 463.705V470.618V475.995L796.937 466.777L808.42 446.039V441.43L821.434 420.692L826.793 411.474V407.634L823.731 406.098Z" fill="#15616D"/>
<path d="M790.048 497.501C790.826 494.479 790.826 491.307 790.048 488.284C789.006 485.057 787.161 482.149 784.689 479.835C782.174 479.217 779.548 479.217 777.033 479.835C774.81 479.012 772.367 479.012 770.143 479.835C769.027 482.805 769.027 486.082 770.143 489.052C771.185 492.28 773.03 495.187 775.502 497.501C778.008 498.187 780.652 498.187 783.158 497.501C785.139 498.204 787.301 498.204 789.282 497.501C789.282 497.501 790.048 498.269 790.048 497.501Z" fill="#15616D"/>
<path d="M781.627 230.971L765.55 253.246L760.191 260.159L744.115 282.434L737.225 291.651V296.26L741.818 290.115C743.344 287.381 745.139 284.808 747.177 282.434C758.66 265.536 771.675 247.869 784.689 230.971L790.048 224.826C791.654 221.945 793.723 219.35 796.172 217.145L781.627 230.971Z" fill="#15616D"/>
<path d="M821.436 385.359L810.718 375.374L784.689 355.403L758.66 333.896L751.77 327.751L744.115 322.375H748.708L758.66 330.824L784.689 352.331L809.952 373.837L817.608 380.75L822.967 386.127L821.436 385.359Z" fill="#15616D"/>
<path d="M741.818 317.766C742.988 314.542 742.988 311.006 741.818 307.781C741.256 304.14 739.341 300.847 736.459 298.564C733.218 297.558 729.749 297.558 726.507 298.564C723.218 298.968 720.206 300.617 718.086 303.173C717.34 304.73 716.952 306.437 716.952 308.165C716.952 309.894 717.34 311.6 718.086 313.158C719.102 316.62 720.941 319.784 723.445 322.375H732.632C734.232 322.406 735.819 322.078 737.276 321.413C738.733 320.749 740.024 319.765 741.053 318.535L741.818 317.766Z" fill="#15616D"/>
<path d="M755.597 28.1931C738.755 47.3956 722.679 65.83 707.368 85.0325L702.009 91.9454L695.885 100.394L705.837 87.3368L721.148 69.6705C728.323 62.0021 735.995 54.8175 744.114 48.1637L757.894 31.2656L772.44 15.9036H768.612L765.55 18.976L755.597 28.1931Z" fill="#15616D"/>
<path d="M818.374 185.653C816.772 188.338 814.981 190.904 813.016 193.334L818.374 185.653Z" fill="#15616D"/>
<path d="M699.714 124.973L708.135 131.118L716.556 137.263L746.413 160.306L774.738 183.349L787.752 193.334L779.331 185.653L773.207 181.045C754.068 165.683 734.164 149.553 714.26 134.959L707.37 124.973C705.6 124.622 703.78 124.622 702.011 124.973H699.714Z" fill="#15616D"/>
<path d="M671.388 105.771C670.218 108.996 670.218 112.531 671.388 115.756C671.926 119.234 673.531 122.456 675.982 124.973C679.459 126.144 683.222 126.144 686.699 124.973C688.701 126.049 690.936 126.612 693.207 126.612C695.477 126.612 697.712 126.049 699.714 124.973C700.397 122.459 700.397 119.807 699.714 117.292C698.887 113.529 697.031 110.071 694.355 107.307C690.598 106.259 686.628 106.259 682.872 107.307C678.782 107.787 674.99 109.69 672.154 112.684L671.388 105.771Z" fill="#15616D"/>
<path d="M943.158 799.364C943.517 797.849 943.517 796.271 943.158 794.756V799.364Z" fill="#15616D"/>
<path d="M956.938 749.438C956.938 755.583 952.344 761.727 950.813 767.104C949.282 772.481 954.641 755.583 956.938 749.438Z" fill="#15616D"/>
<path d="M938.564 797.06V793.22V787.075C933.205 774.785 926.315 761.728 919.425 749.438L915.598 744.061V739.453L920.191 746.366C923.79 751.826 927.111 757.466 930.143 763.264L938.564 780.93V786.307V791.683V797.06Z" fill="#15616D"/>
<path d="M923.255 662.643H918.661V668.788C918.661 675.7 914.068 681.845 911.771 687.99C909.793 694.275 908.259 700.692 907.178 707.193C906.743 709.218 906.743 711.312 907.178 713.337C906.82 714.852 906.82 716.431 907.178 717.946V713.337C907.178 713.337 907.178 709.497 907.178 707.193C910.476 693.81 914.828 680.711 920.192 668.019C919.904 665.724 919.904 663.402 920.192 661.107C920.192 661.107 920.192 661.107 920.192 657.266L923.255 662.643Z" fill="#15616D"/>
<path d="M908.708 739.453C909.045 736.903 909.045 734.321 908.708 731.772C909.136 729.229 909.136 726.633 908.708 724.091C907.99 723.749 907.206 723.572 906.411 723.572C905.617 723.572 904.833 723.749 904.115 724.091C903.824 726.643 903.824 729.22 904.115 731.772C903.987 734.33 903.987 736.894 904.115 739.453H907.943H908.708Z" fill="#15616D"/>
<path d="M938.565 797.06V800.9C938.565 797.06 938.565 793.988 938.565 793.988C938.565 793.988 939.331 795.524 938.565 797.06Z" fill="#15616D"/>
<path d="M918.66 631.919C914.066 625.774 909.473 618.861 904.114 612.716L888.803 593.514L876.555 585.833V581.992L884.21 591.209L900.287 610.412C904.88 616.557 910.239 622.702 914.832 629.614L920.191 637.295C920.191 637.295 920.191 637.295 920.191 632.687L918.66 631.919Z" fill="#15616D"/>
<path d="M907.944 493.661V498.27C905.735 500.505 903.923 503.103 902.585 505.951L888.805 527.457L876.556 548.964C875.435 551.599 874.157 554.164 872.729 556.645V561.254C872.316 559.226 872.316 557.136 872.729 555.109V548.964C880.384 535.138 889.571 519.776 898.757 505.183C900.448 503.727 901.761 501.882 902.585 499.806L907.178 493.661H907.944Z" fill="#15616D"/>
<path d="M873.493 580.456C873.944 577.4 873.944 574.295 873.493 571.239C872.692 568.467 871.395 565.864 869.665 563.558C868.714 563.084 867.666 562.838 866.603 562.838C865.541 562.838 864.493 563.084 863.541 563.558C862.706 563.15 861.79 562.939 860.861 562.939C859.933 562.939 859.017 563.15 858.182 563.558C857.395 566.319 857.395 569.246 858.182 572.007C858.94 575.182 860.526 578.098 862.775 580.456C864.766 581.102 866.909 581.102 868.9 580.456C869.735 580.864 870.651 581.075 871.579 581.075C872.508 581.075 873.424 580.864 874.259 580.456H873.493Z" fill="#15616D"/>
<path d="M969.187 416.083C955.407 431.445 943.158 446.039 931.675 461.401C943.158 446.039 955.407 432.213 969.187 416.083Z" fill="#15616D"/>
<path d="M897.991 461.401C884.211 446.807 870.432 432.213 855.121 417.619C853.532 415.639 851.736 413.836 849.762 412.242L842.106 405.33V409.17L850.527 417.619L871.963 439.126L891.867 459.865L897.991 467.546L901.819 472.154L897.991 461.401Z" fill="#15616D"/>
<path d="M842.106 386.895V382.287L848.231 373.838L863.542 353.099L868.135 347.722C873.582 340.216 879.462 333.035 885.742 326.215L891.101 319.303L896.46 313.158L888.039 323.143L869.666 346.186L852.824 369.229L847.465 376.91L843.637 382.287L842.106 386.895Z" fill="#15616D"/>
<path d="M842.106 405.33C843.298 402.374 843.298 399.068 842.106 396.112C843.223 393.142 843.223 389.865 842.106 386.895C839.08 386.229 835.946 386.229 832.919 386.895C831.449 386.973 830.01 387.355 828.693 388.015C827.376 388.676 826.209 389.602 825.264 390.736C824.147 393.706 824.147 396.983 825.264 399.953C825.366 401.722 825.826 403.451 826.616 405.035C827.406 406.62 828.508 408.027 829.857 409.17C832.563 410.24 835.573 410.24 838.278 409.17C839.639 409.083 840.963 408.693 842.155 408.029C843.346 407.365 844.376 406.443 845.168 405.33H842.106Z" fill="#15616D"/>
<path d="M926.317 278.593C940.863 261.695 956.939 245.565 973.016 228.667C956.939 242.493 940.863 258.623 926.317 278.593Z" fill="#15616D"/>
<path d="M829.857 230.971C847.465 246.333 865.073 262.463 881.149 278.593L887.274 284.738L894.164 290.883L889.57 286.274L883.446 278.593L862.011 258.623L853.589 250.942L832.154 231.739L820.671 220.986L829.092 228.667L829.857 230.971Z" fill="#15616D"/>
<path d="M815.312 195.639L824.499 184.885L871.197 132.654L878.853 124.205L884.977 118.061L880.384 122.669L871.197 124.973L824.499 177.204L818.374 184.117L813.016 191.798L815.312 195.639Z" fill="#15616D"/>
<path d="M790.814 197.175C790.009 198.715 789.589 200.428 789.589 202.168C789.589 203.907 790.009 205.62 790.814 207.16C791.193 210.909 792.809 214.424 795.407 217.145C798.679 217.929 802.088 217.929 805.36 217.145C807.122 217.043 808.846 216.581 810.425 215.789C812.004 214.997 813.407 213.89 814.546 212.537C815.293 210.979 815.68 209.273 815.68 207.544C815.68 205.816 815.293 204.109 814.546 202.552C814.296 198.769 812.66 195.212 809.953 192.566C808.257 191.848 806.435 191.478 804.594 191.478C802.753 191.478 800.931 191.848 799.235 192.566C795.553 192.536 791.996 193.909 789.283 196.407C789.729 196.776 790.252 197.038 790.814 197.175Z" fill="#15616D"/>
<path d="M810.717 26.6569L868.898 77.3515L878.851 85.8006L884.209 91.1773L879.616 86.5687L868.898 77.3515L842.104 48.1637L812.248 22.8165L803.827 15.9036L796.171 9.75879H800.764L810.717 26.6569Z" fill="#15616D"/>
<path d="M765.551 -8.67566C764.835 -6.97411 764.466 -5.14592 764.466 -3.29899C764.466 -1.45206 764.835 0.376166 765.551 2.07772C765.93 6.05429 767.535 9.81325 770.144 12.8311H773.972C777.701 14.0621 781.725 14.0621 785.455 12.8311C789.321 12.1029 792.981 10.5295 796.173 8.2225C798.657 4.89863 800 0.855853 800 -3.29899C799.478 -7.16851 797.574 -10.7164 794.641 -13.2843C790.854 -14.0709 786.946 -14.0709 783.158 -13.2843C778.849 -12.7951 774.817 -10.9071 771.675 -7.90758L765.551 -8.67566Z" fill="#15616D"/>
<path d="M944.688 816.263C950.556 834.609 953.147 853.851 952.344 873.102C952.531 853.885 949.952 834.741 944.688 816.263Z" fill="#15616D"/>
<path d="M972.249 816.263C963.286 833.692 956.841 852.313 953.11 871.566C956.957 852.345 963.396 833.739 972.249 816.263Z" fill="#15616D"/>
<path d="M962.296 739.453L958.469 746.365C958.469 752.51 953.875 758.655 952.344 764.032C950.206 770.068 948.417 776.223 946.985 782.466C946.985 782.466 946.985 782.466 946.985 787.843C946.985 787.843 946.985 784.002 946.985 781.698C950.138 768.867 954.232 756.287 959.234 744.061C959.38 742.272 959.38 740.474 959.234 738.684V734.076L962.296 739.453Z" fill="#15616D"/>
<path d="M944.688 806.277C945.212 804.003 945.212 801.639 944.688 799.364C944.688 799.364 944.688 799.364 944.688 806.277V811.654V819.335V810.118V806.277Z" fill="#15616D"/>
<path d="M953.109 872.334V865.421C952.841 866.687 952.841 867.996 953.109 869.261V876.174C952.898 880.012 952.898 883.858 953.109 887.696C952.692 883.867 952.692 880.003 953.109 876.174C952.638 874.938 952.638 873.57 953.109 872.334Z" fill="#15616D"/>
<path d="M960 711.033L951.579 692.598L941.627 673.396L936.268 662.643V667.251C936.642 669.282 936.642 671.365 936.268 673.396L946.22 691.062C949.228 696.741 951.788 702.648 953.875 708.729C954.164 711.024 954.164 713.346 953.875 715.641C953.875 715.641 953.875 715.641 953.875 719.482L960 711.033Z" fill="#15616D"/>
<path d="M971.484 579.688V585.065L967.656 590.441C958.165 603.735 949.474 617.586 941.628 631.919L937.8 638.832V642.672V638.064C938.088 635.768 938.088 633.446 937.8 631.151L948.518 613.484V608.108L960.001 590.441C961.966 588.012 963.757 585.445 965.36 582.76V578.92L971.484 579.688Z" fill="#15616D"/>
<path d="M933.972 662.643C934.4 660.1 934.4 657.504 933.972 654.962C934.759 652.201 934.759 649.274 933.972 646.513C933.254 646.171 932.47 645.994 931.675 645.994C930.881 645.994 930.096 646.171 929.379 646.513C928.68 646.108 927.888 645.895 927.082 645.895C926.276 645.895 925.484 646.108 924.785 646.513C923.998 649.274 923.998 652.201 924.785 654.962C924.018 657.464 924.018 660.14 924.785 662.643H929.379H933.972Z" fill="#15616D"/>
<path d="M1032.73 509.023C1018.95 523.617 1006.7 537.443 995.216 552.037C1006.7 534.37 1018.95 520.544 1032.73 509.023Z" fill="#15616D"/>
<path d="M1033.49 509.023C1020.48 523.617 1007.46 537.443 995.981 552.037C1007.46 536.675 1020.48 522.849 1033.49 509.023Z" fill="#15616D"/>
<path d="M966.124 548.196C956.938 534.37 946.22 519.776 934.737 505.183L930.143 499.806L925.55 493.661V497.502L931.674 505.183L947.751 526.689L962.296 547.428L966.124 553.573V548.196Z" fill="#15616D"/>
<path d="M979.906 403.793L973.781 410.706L969.188 416.083C955.408 431.445 943.159 446.039 931.676 461.401L926.317 468.314V473.69V469.85L933.207 461.401C937.114 455.447 941.465 449.798 946.221 444.503L955.408 432.981L969.953 416.083L978.375 406.866L979.906 403.793Z" fill="#15616D"/>
<path d="M925.55 493.661C926.401 490.648 926.401 487.457 925.55 484.444C926.337 481.683 926.337 478.756 925.55 475.995C924.466 475.507 923.292 475.256 922.105 475.256C920.918 475.256 919.744 475.507 918.66 475.995C917.447 475.488 916.146 475.227 914.832 475.227C913.518 475.227 912.217 475.488 911.004 475.995C910.573 478.795 910.573 481.644 911.004 484.444C910.46 487.492 910.46 490.613 911.004 493.661C913.247 494.369 915.652 494.369 917.894 493.661C919.876 494.364 922.037 494.364 924.019 493.661H925.55Z" fill="#15616D"/>
<path d="M973.015 225.595C956.939 242.493 940.862 258.623 926.317 275.521C923.894 276.842 921.324 277.873 918.661 278.593L912.537 286.274V282.434C918.063 282.008 923.489 280.712 928.614 278.593L946.987 259.391L956.939 249.406L975.312 230.203L985.264 220.986L989.092 217.145L984.499 221.754L973.015 225.595Z" fill="#15616D"/>
<path d="M1012.82 373.069C1027.37 357.708 1043.45 342.346 1059.52 327.752C1043.45 342.346 1027.37 355.403 1012.82 373.069Z" fill="#15616D"/>
<path d="M918.66 312.389L927.847 322.375L946.22 342.345L952.345 349.258L969.952 369.229L977.608 379.214L972.249 372.301L967.656 366.156C953.876 350.794 940.096 334.664 925.55 319.302L917.895 311.621L918.66 310.085V312.389Z" fill="#15616D"/>
<path d="M897.99 313.158C900.987 314.054 904.179 314.054 907.176 313.158C909.007 313.983 911.011 314.345 913.014 314.211C915.016 314.077 916.955 313.452 918.66 312.39C919.899 309.177 919.899 305.617 918.66 302.404C919.776 299.434 919.776 296.157 918.66 293.187C916.079 290.964 912.863 289.62 909.473 289.347C906.025 289.355 902.721 290.736 900.287 293.187C899.116 296.412 899.116 299.948 900.287 303.172C899.234 306.417 899.234 309.913 900.287 313.158H897.99Z" fill="#15616D"/>
<path d="M976.842 19.744C957.703 37.4103 940.095 55.8447 922.488 73.5109L914.832 80.4238L907.942 87.3367L918.66 85.8005C921.783 82.2823 925.106 78.9483 928.612 75.8152L950.813 52.7723L959.234 45.0913L982.201 22.8164L995.215 11.2949L987.56 18.2078L976.842 19.744Z" fill="#15616D"/>
<path d="M1096.27 118.061L1088.61 124.205L1097.03 118.061H1096.27Z" fill="#15616D"/>
<path d="M908.707 114.22L918.66 124.973L925.55 131.118L949.282 154.929C951.511 156.779 953.562 158.837 955.406 161.074L976.076 182.581L987.559 194.102L977.607 183.349L959.234 164.915L946.219 152.625L926.315 124.973L918.66 116.524L913.301 111.148L908.707 114.22Z" fill="#15616D"/>
<path d="M888.038 114.22C891.515 115.391 895.278 115.391 898.755 114.22C901.989 115.276 905.474 115.276 908.708 114.22V110.38C909.079 108.09 909.079 105.756 908.708 103.467C909.878 100.242 909.878 96.7063 908.708 93.4814C905.222 92.364 901.476 92.364 897.99 93.4814C894.497 92.4127 890.765 92.4127 887.272 93.4814C884.783 96.2037 883.415 99.7721 883.445 103.467C882.785 105.723 882.785 108.123 883.445 110.38L888.038 114.22Z" fill="#15616D"/>
<path d="M977.607 797.06V787.075C977.607 780.93 977.607 774.785 977.607 768.64C977.607 762.496 977.607 756.351 973.779 750.206C973.345 748.181 973.345 746.086 973.779 744.061C973.779 744.061 973.779 744.061 973.779 740.221V745.597V752.51C973.779 757.887 973.779 764.032 973.779 770.177C974.157 776.059 974.157 781.96 973.779 787.843C974.154 789.874 974.154 791.957 973.779 793.988V798.596L977.607 797.06Z" fill="#15616D"/>
<path d="M1010.53 662.643L1005.17 669.555L992.154 687.99C988.326 694.135 983.733 700.279 980.671 706.424C980.817 708.47 980.817 710.523 980.671 712.569V717.178V713.337C980.923 711.04 980.923 708.722 980.671 706.424L992.154 688.758L1005.17 670.324L1010.53 664.179V659.57V662.643Z" fill="#15616D"/>
<path d="M969.186 739.453C969.629 736.912 969.629 734.313 969.186 731.772C969.575 729.226 969.575 726.636 969.186 724.091C967.954 723.618 966.591 723.618 965.358 724.091C964.93 726.633 964.93 729.229 965.358 731.772C964.54 734.266 964.54 736.958 965.358 739.453H969.186Z" fill="#15616D"/>
<path d="M976.076 799.364V806.277C976.076 806.277 976.076 811.654 976.076 813.958C976.223 811.4 976.223 808.835 976.076 806.277C976.918 802.062 978.756 798.111 981.435 794.756L976.076 799.364Z" fill="#15616D"/>
<path d="M1011.29 632.687C1011.29 625.774 1005.93 618.861 1002.87 611.948C1002.87 605.035 996.745 598.89 992.918 591.978L987.559 585.833V581.992L992.918 590.441L1001.34 608.108C1001.61 610.147 1001.61 612.213 1001.34 614.252C1001.34 620.397 1006.7 625.774 1008.99 631.919V639.6C1009.33 638.082 1009.33 636.509 1008.99 634.991L1011.29 632.687Z" fill="#15616D"/>
<path d="M1043.45 494.429L1037.32 500.574L1032.73 505.95C1018.95 520.544 1006.7 534.37 995.216 548.964L988.326 556.645V560.485V555.109L992.919 548.964C1004.4 534.37 1017.42 520.544 1030.43 505.95L1037.32 499.038L1041.91 494.429C1041.91 494.429 1043.45 495.965 1043.45 494.429Z" fill="#15616D"/>
<path d="M985.264 579.688C986.012 576.922 986.012 574.005 985.264 571.239C986.094 568.484 986.094 565.545 985.264 562.79C984.551 561.836 983.626 561.062 982.563 560.528C981.5 559.995 980.328 559.718 979.14 559.718C977.951 559.718 976.779 559.995 975.716 560.528C974.653 561.062 973.728 561.836 973.015 562.79C972.334 565.565 972.334 568.464 973.015 571.239C972.164 574.252 972.164 577.443 973.015 580.456C973.85 580.864 974.766 581.076 975.695 581.076C976.623 581.076 977.539 580.864 978.374 580.456C980.113 581.042 981.994 581.042 983.733 580.456L985.264 579.688Z" fill="#15616D"/>
<path d="M1041.15 462.169C1035.79 455.256 1031.2 447.575 1025.84 439.894L1009.76 418.387L1002.11 407.634L1006.7 414.547L1011.29 420.692C1022.78 436.054 1033.49 450.647 1043.45 466.009L1048.04 474.459V478.299V472.922L1041.15 462.169Z" fill="#15616D"/>
<path d="M1000.57 385.359L1006.7 379.214L1012.82 373.07C1027.37 357.708 1043.44 342.346 1059.52 327.752L1071.77 319.303V314.694L1066.41 320.071L1058.76 326.984L1038.85 346.186L1029.66 355.403C1023.42 360.902 1017.54 366.804 1012.06 373.07C1008.37 376.003 1005.03 379.354 1002.1 383.055L1000.57 385.359Z" fill="#15616D"/>
<path d="M999.044 403.793C1000.16 400.823 1000.16 397.547 999.044 394.576C1000.09 391.594 1000.09 388.341 999.044 385.359C996.298 384.526 993.368 384.526 990.622 385.359C987.884 384.477 984.94 384.477 982.201 385.359C980.029 387.974 978.695 391.187 978.374 394.576C977.48 397.583 977.48 400.786 978.374 403.793C980.484 405.815 983.151 407.153 986.029 407.634C989.229 407.507 992.251 406.129 994.45 403.793C994.45 403.793 999.044 405.33 999.044 403.793Z" fill="#15616D"/>
<path d="M1166.7 236.348C1147.56 251.71 1128.42 267.072 1110.81 282.434C1128.42 267.072 1148.32 251.71 1166.7 236.348Z" fill="#15616D"/>
<path d="M1020.48 229.435C1035.79 246.333 1049.57 263.231 1063.35 280.129V284.738L1070.24 293.187L1071.77 286.274L1065.65 278.593C1052.63 261.695 1038.09 244.797 1023.54 227.899L1017.42 221.754L1011.29 214.841L1018.18 222.522L1020.48 229.435Z" fill="#15616D"/>
<path d="M1012.06 192.566L1017.42 187.958L1026.6 179.508L1080.96 131.118L1088.61 124.205L1096.27 118.061L1080.96 131.118L1061.82 148.016L1047.27 161.074L1026.6 180.277L1017.42 188.726L1012.06 193.334V192.566Z" fill="#15616D"/>
<path d="M986.795 192.566C986.014 195.849 986.014 199.269 986.795 202.551C986.048 204.109 985.66 205.816 985.66 207.544C985.66 209.273 986.048 210.979 986.795 212.537C989.811 213.285 992.964 213.285 995.981 212.537C999.183 213.781 1002.73 213.781 1005.93 212.537C1006.99 209.292 1006.99 205.796 1005.93 202.551C1007.05 199.054 1007.05 195.295 1005.93 191.798C1002.72 190.624 999.195 190.624 995.981 191.798C992.747 190.742 989.263 190.742 986.029 191.798L986.795 192.566Z" fill="#15616D"/>
<path d="M1139.14 82.728C1159.04 66.598 1179.71 51.236 1201.15 35.874C1179.71 48.1636 1159.04 66.598 1139.14 82.728Z" fill="#15616D"/>
<path d="M1031.96 24.3525L1053.4 46.6274L1061.05 55.0765L1083.25 78.8876L1090.14 87.3367L1096.27 94.2495L1087.08 83.4962H1083.25C1066.41 65.0618 1049.57 45.8593 1031.96 27.4249L1023.54 18.9758L1017.42 12.8311L1022.01 17.4396L1031.96 24.3525Z" fill="#15616D"/>
<path d="M995.216 -15.5884C993.67 -14.2779 992.449 -12.6235 991.652 -10.7568C990.855 -8.89002 990.502 -6.86241 990.623 -4.83507C990.732 -0.934477 992.073 2.83066 994.451 5.91831C997.944 6.98701 1001.68 6.98701 1005.17 5.91831C1008.91 7.09762 1012.91 7.09762 1016.65 5.91831C1019.26 2.90047 1020.87 -0.858498 1021.24 -4.83507C1021.24 -8.98991 1019.9 -13.0327 1017.42 -16.3566C1014.59 -19.251 1010.74 -20.9074 1006.7 -20.9651C1002.69 -22.0777 998.458 -22.0777 994.451 -20.9651L995.216 -15.5884Z" fill="#15616D"/>
<path d="M976.076 816.262C973.681 834.852 968.52 852.976 960.766 870.029C969.195 852.961 974.387 834.468 976.076 815.494V816.262Z" fill="#15616D"/>
<path d="M960 870.03L960.766 868.493L960 870.03Z" fill="#15616D"/>
<path d="M1022.77 739.453L1018.18 744.061L1014.35 748.67C1004.4 761.727 995.214 774.017 987.559 786.307C986.457 788.459 985.177 790.515 983.731 792.451V796.292C984.712 793.835 985.998 791.513 987.559 789.379C995.731 776.552 1004.68 764.239 1014.35 752.51L1018.95 746.366V742.525L1022.77 739.453Z" fill="#15616D"/>
<path d="M979.904 806.277C980.108 803.977 980.108 801.664 979.904 799.364V794.756C977.226 798.111 975.388 802.062 974.546 806.277C974.692 808.835 974.692 811.4 974.546 813.958L979.904 806.277Z" fill="#15616D"/>
<path d="M959.999 871.566V867.725V872.334V878.479L954.641 890L960.765 878.479C961.014 876.146 960.753 873.787 959.999 871.566Z" fill="#15616D"/>
<path d="M1030.43 711.801V693.367C1030.86 686.973 1030.86 680.557 1030.43 674.164C1030.07 671.874 1030.07 669.541 1030.43 667.251C1030.43 667.251 1030.43 667.251 1030.43 671.092V678.005C1033.59 690.861 1035.64 703.968 1036.55 717.178L1030.43 711.801Z" fill="#15616D"/>
<path d="M1083.25 585.833L1077.89 591.209L1072.54 596.586C1058.76 609.644 1045.74 623.47 1034.26 636.527L1029.66 641.904L1025.07 647.281V642.672L1030.43 636.527C1042.39 622.465 1055.17 609.128 1068.71 596.586L1079.43 585.833H1084.02H1083.25Z" fill="#15616D"/>
<path d="M1021.24 662.643C1023.12 660.139 1024.42 657.256 1025.07 654.193C1025.45 651.647 1025.45 649.059 1025.07 646.512C1023.84 646.04 1022.48 646.04 1021.24 646.512C1021.24 646.512 1017.42 646.512 1015.12 646.512C1014.69 649.055 1014.69 651.651 1015.12 654.193C1014.33 656.954 1014.33 659.882 1015.12 662.643H1019.71H1021.24Z" fill="#15616D"/>
<path d="M1183.54 469.082C1183.54 469.082 1183.54 475.227 1183.54 479.067C1183.54 482.908 1185.07 472.154 1183.54 469.082Z" fill="#15616D"/>
<path d="M1181.24 471.386C1181.24 471.386 1181.24 477.531 1181.24 479.835C1181.24 482.139 1182.01 474.458 1181.24 471.386Z" fill="#15616D"/>
<path d="M1087.08 551.268C1081.4 536.255 1074.76 521.63 1067.18 507.487L1062.58 499.806V495.197V500.574C1063.69 502.726 1064.97 504.782 1066.41 506.719C1074.07 522.081 1080.96 536.674 1086.32 550.5C1085.89 553.042 1085.89 555.639 1086.32 558.181L1087.08 551.268Z" fill="#15616D"/>
<path d="M1136.08 409.17H1132.25L1122.3 417.619L1100.86 436.053L1094.74 442.198L1074.83 460.633L1065.64 469.85L1070.24 465.241L1077.89 458.328L1099.33 438.358L1122.3 418.387L1129.19 413.011L1136.08 406.866V409.17Z" fill="#15616D"/>
<path d="M1060.29 495.197C1062.54 492.838 1064.12 489.923 1064.88 486.748C1065.69 483.73 1065.69 480.549 1064.88 477.531C1063.93 477.057 1062.88 476.811 1061.82 476.811C1060.76 476.811 1059.71 477.057 1058.76 477.531C1057.56 476.979 1056.25 476.693 1054.93 476.693C1053.61 476.693 1052.3 476.979 1051.1 477.531C1048.66 479.973 1047.28 483.288 1047.27 486.748C1046.7 488.083 1046.41 489.52 1046.41 490.973C1046.41 492.425 1046.7 493.862 1047.27 495.197C1047.84 496.343 1048.71 497.309 1049.79 497.987C1050.87 498.665 1052.12 499.029 1053.4 499.038C1055.66 499.623 1058.03 499.623 1060.29 499.038V495.197Z" fill="#15616D"/>
<path d="M1164.4 234.044L1141.44 252.478L1129.95 261.695L1109.28 278.593L1098.56 287.811L1106.99 280.898L1113.11 276.289C1130.72 260.927 1149.86 245.565 1169 230.203L1175.89 224.826L1184.31 218.682L1178.18 223.29L1164.4 234.044Z" fill="#15616D"/>
<path d="M1175.89 380.75C1194.26 366.156 1213.4 352.331 1232.54 338.505C1213.4 355.403 1194.26 366.156 1175.89 380.75Z" fill="#15616D"/>
<path d="M1090.91 315.462L1099.33 326.983L1111.58 345.418L1119.23 356.171L1131.48 375.374C1132.81 378.459 1134.62 381.311 1136.84 383.823V388.431L1130.72 378.446L1115.41 354.635C1110.05 346.954 1104.69 338.505 1098.56 330.824L1093.21 323.143L1088.61 316.998C1088.61 316.998 1091.67 315.462 1090.91 315.462Z" fill="#15616D"/>
<path d="M1094.74 291.651C1092.54 289.315 1089.52 287.937 1086.32 287.81C1083.09 286.698 1079.59 286.698 1076.36 287.81C1073.82 290.26 1072.2 293.516 1071.77 297.027C1070.53 300.24 1070.53 303.801 1071.77 307.013C1073.1 307.583 1074.53 307.877 1075.98 307.877C1077.43 307.877 1078.86 307.583 1080.19 307.013C1083.17 308.008 1086.4 308.008 1089.38 307.013C1092.03 304.538 1093.9 301.331 1094.74 297.796C1095.52 294.513 1095.52 291.093 1094.74 287.81V291.651Z" fill="#15616D"/>
<path d="M1224.88 192.566C1244.79 177.972 1266.22 163.379 1287.66 149.553C1266.99 163.379 1245.55 177.972 1224.88 192.566Z" fill="#15616D"/>
<path d="M1198.09 32.8017L1136.08 80.4239L1123.06 90.4092H1127.66L1139.14 81.1919C1159.04 65.0619 1179.71 49.6999 1201.15 34.3379L1208.8 28.9612L1217.99 22.0483L1211.1 27.425L1198.09 32.8017Z" fill="#15616D"/>
<path d="M1117.7 118.829L1121.53 123.437C1124.75 126.678 1127.58 130.288 1129.95 134.191C1145.26 151.857 1159.81 169.523 1172.82 187.958C1175.79 190.943 1178.37 194.299 1180.48 197.943V202.551V198.711L1172.06 187.189L1159.04 171.059L1148.33 147.248C1144.5 141.872 1139.91 137.263 1135.31 131.886C1131.65 126.681 1127.55 121.799 1123.06 117.292L1117.7 118.829Z" fill="#15616D"/>
<path d="M1096.27 118.061C1099.48 119.235 1103.01 119.235 1106.22 118.061C1109.71 119.178 1113.45 119.178 1116.94 118.061C1119.61 115.296 1121.47 111.839 1122.3 108.075C1123.41 104.578 1123.41 100.819 1122.3 97.3219C1118.82 96.151 1115.06 96.151 1111.58 97.3219C1109.88 96.6037 1108.06 96.2336 1106.22 96.2336C1104.38 96.2336 1102.56 96.6037 1100.86 97.3219C1099.38 98.5141 1098.19 100.037 1097.39 101.77C1096.59 103.504 1096.21 105.399 1096.27 107.307C1095.1 110.796 1095.1 114.572 1096.27 118.061Z" fill="#15616D"/>
<path d="M1071.77 752.51C1057.23 764.8 1043.45 777.089 1031.2 789.379C1041.91 777.089 1055.69 764.8 1071.77 752.51Z" fill="#15616D"/>
<path d="M1020.48 787.075L1025.07 770.177C1025.44 764.293 1025.44 758.393 1025.07 752.51C1025.44 750.221 1025.44 747.887 1025.07 745.597V750.206C1024.7 751.979 1024.7 753.81 1025.07 755.583C1025.07 761.727 1025.07 767.872 1025.07 774.017C1023.64 780.26 1021.85 786.415 1019.71 792.451V798.596V803.205L1020.48 787.075Z" fill="#15616D"/>
<path d="M1097.8 662.643L1091.67 668.019L1086.31 672.628C1072.56 684.65 1059.52 697.473 1047.27 711.033L1040.38 718.714L1044.98 714.105L1050.33 707.96C1062.6 694.655 1075.64 682.088 1089.38 670.324L1094.74 665.715L1100.86 659.57L1097.8 662.643Z" fill="#15616D"/>
<path d="M1029.67 739.453C1031.87 737.217 1033.69 734.619 1035.02 731.772C1035.61 729.245 1035.61 726.617 1035.02 724.091H1030.43L1025.84 731.004C1025.54 733.812 1025.54 736.644 1025.84 739.453H1029.67Z" fill="#15616D"/>
<path d="M1164.4 509.023L1142.2 526.689L1136.84 531.298L1116.17 548.964L1107.75 556.645L1103.16 560.486L1108.52 555.109L1115.41 548.964L1164.4 509.023L1172.82 502.878L1178.18 498.27L1172.06 502.878L1164.4 509.023Z" fill="#15616D"/>
<path d="M1107.75 634.991C1106.58 621.001 1104.27 607.13 1100.86 593.514C1100.52 591.48 1100.52 589.403 1100.86 587.369C1100.5 589.659 1100.5 591.992 1100.86 594.282C1104.64 607.818 1106.95 621.725 1107.75 635.759C1108.12 638.049 1108.12 640.383 1107.75 642.672V646.513V641.136C1107.38 639.105 1107.38 637.022 1107.75 634.991Z" fill="#15616D"/>
<path d="M1097.8 585.833C1100.02 583.321 1101.83 580.469 1103.16 577.384C1103.87 574.613 1103.87 571.705 1103.16 568.935C1102.98 567.85 1102.41 566.866 1101.57 566.162C1100.73 565.457 1099.66 565.079 1098.57 565.094C1096.31 564.509 1093.93 564.509 1091.68 565.094C1089.29 567.482 1087.46 570.367 1086.32 573.543C1085.97 576.349 1085.97 579.186 1086.32 581.992H1090.91C1093.17 582.578 1095.54 582.578 1097.8 581.992V585.833Z" fill="#15616D"/>
<path d="M1267.75 332.36C1267.75 336.201 1271.58 339.273 1273.11 343.114C1274.64 346.954 1269.28 336.201 1267.75 332.36Z" fill="#15616D"/>
<path d="M1231.01 336.201L1202.68 356.939L1175.12 378.446L1167.47 384.591L1160.58 389.968L1172.82 380.75C1191.2 366.157 1210.34 352.331 1229.47 338.505L1236.36 333.896L1245.55 327.752L1240.96 331.592L1231.01 336.201Z" fill="#15616D"/>
<path d="M1183.54 469.082C1183.54 462.169 1177.42 454.488 1174.35 447.575C1174.35 439.894 1167.46 432.213 1163.64 424.532C1163.38 422.749 1163.38 420.939 1163.64 419.155L1159.81 412.242V417.619L1163.64 425.3C1171.72 440.206 1178.88 455.597 1185.07 471.386C1185.07 471.386 1185.07 477.531 1185.07 479.835V483.676C1185.07 483.676 1185.07 472.154 1183.54 469.082Z" fill="#15616D"/>
<path d="M1140.67 390.736C1138.29 393.418 1136.47 396.552 1135.31 399.953C1134.53 402.976 1134.53 406.147 1135.31 409.17C1136.4 409.657 1137.57 409.909 1138.76 409.909C1139.94 409.909 1141.12 409.657 1142.2 409.17C1144.91 410.24 1147.92 410.24 1150.62 409.17C1152.97 406.465 1154.79 403.337 1155.98 399.953C1156.76 396.93 1156.76 393.758 1155.98 390.736C1154.9 390.248 1153.72 389.996 1152.54 389.996C1151.35 389.996 1150.18 390.248 1149.09 390.736C1146.15 389.54 1142.85 389.54 1139.91 390.736H1140.67Z" fill="#15616D"/>
<path d="M1377.99 209.464C1377.99 213.305 1381.82 216.377 1383.35 219.45C1384.88 222.522 1377.99 213.305 1377.99 209.464Z" fill="#15616D"/>
<path d="M1355.79 255.55C1333.59 268.608 1312.15 281.666 1291.48 295.491C1312.15 278.593 1333.59 268.608 1355.79 255.55Z" fill="#15616D"/>
<path d="M1247.85 290.115C1237.9 273.217 1226.41 255.55 1214.16 238.652C1220.21 246.537 1225.83 254.742 1231.01 263.231L1245.55 287.042L1250.14 294.723L1253.97 300.868V297.028L1247.85 290.115Z" fill="#15616D"/>
<path d="M1208.8 201.783H1214.16L1225.65 194.102C1245.55 179.509 1266.99 164.915 1288.42 151.089L1295.31 146.48L1305.26 139.567L1288.42 150.321L1265.46 165.683L1250.91 175.668L1224.88 189.494L1212.63 201.783H1207.27C1207.78 201.68 1208.3 201.68 1208.8 201.783Z" fill="#15616D"/>
<path d="M1183.54 201.783C1180.89 204.259 1179.02 207.465 1178.18 211.001C1177.38 212.541 1176.96 214.254 1176.96 215.993C1176.96 217.732 1177.38 219.446 1178.18 220.986C1181.14 222.106 1184.41 222.106 1187.37 220.986C1188.92 221.735 1190.62 222.124 1192.34 222.124C1194.07 222.124 1195.77 221.735 1197.32 220.986C1200.43 218.785 1202.62 215.498 1203.44 211.769C1204.68 208.557 1204.68 204.996 1203.44 201.783C1200.91 199.365 1197.71 197.761 1194.26 197.175C1190.51 196.043 1186.52 196.043 1182.78 197.175L1183.54 201.783Z" fill="#15616D"/>
<path d="M1253.21 42.0189L1273.88 68.9023L1277.7 73.5109L1296.84 99.6263L1306.03 111.916C1304.5 109.182 1302.71 106.609 1300.67 104.235L1301.44 98.0901C1287.66 78.8876 1272.34 58.917 1257.03 39.7146L1250.91 32.0336C1248.62 29.4065 1246.57 26.5788 1244.78 23.5845H1240.96L1245.55 29.7293L1253.21 42.0189Z" fill="#15616D"/>
<path d="M1247.08 2.8457H1251.67L1264.69 -6.37147L1292.25 -28.6463C1295.12 -31.2004 1298.19 -33.5125 1301.44 -35.5592L1328.23 -52.4574L1341.24 -60.9065H1347.37L1337.42 -55.5298C1334.91 -53.2983 1332.07 -51.4832 1328.99 -50.1531L1262.39 -6.37147L1253.21 -0.226689L1244.78 5.9181L1247.08 2.8457Z" fill="#15616D"/>
<path d="M1218.76 -0.994778C1215.77 1.64388 1213.63 5.12222 1212.63 8.99048C1211.41 12.7323 1211.41 16.7701 1212.63 20.512C1215.54 23.2796 1219.34 24.9138 1223.35 25.1206C1227.03 26.6153 1231.15 26.6153 1234.83 25.1206H1238.66C1241.34 22.3563 1243.19 18.8986 1244.02 15.1353C1244.78 13.4456 1245.17 11.6127 1245.17 9.7586C1245.17 7.90445 1244.78 6.07155 1244.02 4.38189C1241.06 1.56719 1237.33 -0.303648 1233.3 -0.994778C1229.31 -2.23644 1225.04 -2.23644 1221.05 -0.994778H1218.76Z" fill="#15616D"/>
<path d="M1084.78 753.278C1084.78 758.655 1078.66 764.032 1075.6 770.176C1078.66 764.032 1082.49 758.655 1084.78 753.278Z" fill="#15616D"/>
<path d="M969.953 869.261C991.154 849.339 1013.66 830.863 1037.32 813.958C1013.78 831.025 991.287 849.493 969.953 869.261Z" fill="#15616D"/>
<path d="M1054.93 798.596L1063.35 788.611C1060.33 791.757 1057.52 795.092 1054.93 798.596Z" fill="#15616D"/>
<path d="M1007.46 816.263C996.945 835.025 984.363 852.544 969.953 868.493C985.118 852.424 997.998 834.331 1008.23 814.726L1007.46 816.263Z" fill="#15616D"/>
<path d="M1087.85 743.293L1083.25 754.046L1088.61 743.293H1087.85Z" fill="#15616D"/>
<path d="M1083.25 739.453L1073.3 748.67L1057.99 761.727L1048.8 769.409L1032.73 784.002L1026.6 790.147L1022.77 794.756L1028.13 790.147C1029.51 787.986 1031.34 786.151 1033.49 784.77C1045.74 772.481 1059.52 760.191 1074.07 747.902H1078.66L1086.31 741.757C1086.31 741.757 1082.49 739.453 1083.25 739.453Z" fill="#15616D"/>
<path d="M1008.23 816.262C1010.9 814.063 1013.22 811.474 1015.12 808.581C1016.68 806.448 1017.97 804.125 1018.95 801.668H1014.36L1009 807.813L1004.4 815.494H1008.23V816.262Z" fill="#15616D"/>
<path d="M967.656 871.566C967.656 871.566 971.483 867.725 967.656 867.725C965.9 869.018 964.351 870.572 963.062 872.334L956.938 878.479L946.22 890L957.704 878.479L967.656 871.566Z" fill="#15616D"/>
<path d="M1117.7 714.873C1133.78 702.584 1151.39 690.294 1169.76 678.005C1148.33 690.294 1133.78 702.584 1117.7 714.873Z" fill="#15616D"/>
<path d="M1100.86 714.105C1104.63 701.352 1106.94 688.21 1107.75 674.932C1108.12 672.643 1108.12 670.308 1107.75 668.019V662.643V667.251C1108.08 669.286 1108.08 671.361 1107.75 673.396C1108.12 679.791 1108.12 686.203 1107.75 692.598L1103.16 711.033V717.178C1103.49 718.696 1103.49 720.268 1103.16 721.786C1103.16 721.786 1103.16 721.786 1103.16 717.946L1100.86 714.105Z" fill="#15616D"/>
<path d="M1195.79 585.833L1184.31 594.282L1160.57 611.18H1155.98L1133.78 628.078L1125.36 635.759H1120.77L1131.48 627.31L1145.26 615.789L1163.64 601.963L1181.24 589.673C1184.04 586.694 1187.43 584.339 1191.2 582.76H1195.79V585.833Z" fill="#15616D"/>
<path d="M1108.52 662.643C1111.18 660.443 1113.51 657.854 1115.41 654.962C1116 652.435 1116 649.807 1115.41 647.281C1113.43 646.578 1111.26 646.578 1109.28 647.281C1107.25 649.655 1105.45 652.228 1103.92 654.962C1103.09 657.716 1103.09 660.656 1103.92 663.411H1109.28L1108.52 662.643Z" fill="#15616D"/>
<path d="M1326.7 482.908C1326.7 482.908 1326.7 487.516 1326.7 489.821C1326.7 492.125 1327.46 485.212 1326.7 482.908Z" fill="#15616D"/>
<path d="M1192.73 504.414V511.327C1192.39 512.845 1192.39 514.418 1192.73 515.936C1196.57 530.311 1199.38 544.942 1201.15 559.718C1200.71 561.743 1200.71 563.837 1201.15 565.862V571.239V558.949C1201.15 545.124 1195.79 530.53 1191.96 515.936C1191.6 513.646 1191.6 511.313 1191.96 509.023C1191.51 507.26 1191.51 505.41 1191.96 503.646L1192.73 504.414Z" fill="#15616D"/>
<path d="M1292.25 422.228L1281.53 429.141H1276.17C1256.27 442.198 1236.36 455.256 1217.99 469.082L1207.27 476.763H1202.68H1208.8L1217.99 469.85L1276.17 429.909L1286.12 432.213L1293.01 427.604C1293.01 427.604 1292.25 422.996 1292.25 422.228Z" fill="#15616D"/>
<path d="M1202.68 482.907C1202.24 481.822 1201.51 480.883 1200.56 480.203C1199.61 479.523 1198.48 479.128 1197.32 479.067C1194.61 477.997 1191.6 477.997 1188.9 479.067C1186.43 481.548 1184.37 484.398 1182.77 487.516C1182.16 490.557 1182.16 493.692 1182.77 496.733C1184.5 497.381 1186.41 497.381 1188.13 496.733C1190.9 497.417 1193.79 497.417 1196.55 496.733C1199.19 494.406 1201.29 491.521 1202.68 488.284C1203.75 485.569 1203.75 482.55 1202.68 479.835V482.907Z" fill="#15616D"/>
<path d="M1377.99 373.069C1387.18 367.693 1396.36 362.316 1406.32 357.708C1394.07 362.316 1384.88 367.693 1377.99 373.069Z" fill="#15616D"/>
<path d="M1266.22 329.288C1266.22 329.288 1270.05 336.201 1271.58 340.041L1280.77 357.707L1286.12 369.229C1286.12 376.142 1292.25 382.287 1294.55 388.431C1294.86 391.239 1294.86 394.073 1294.55 396.88V401.489V396.112C1294.85 393.561 1294.85 390.983 1294.55 388.431C1287.84 371.616 1280.17 355.202 1271.58 339.273C1270.6 336.817 1269.31 334.494 1267.75 332.36V325.447L1266.22 329.288Z" fill="#15616D"/>
<path d="M1373.4 244.797L1362.68 250.942L1355.79 255.55C1333.59 268.608 1312.15 281.666 1291.48 295.491L1283.83 300.1L1274.64 306.245L1288.42 297.028L1322.1 278.593H1325.93C1335.88 271.68 1346.6 265.536 1357.32 259.391L1366.51 254.014L1377.99 247.869C1377.99 247.869 1377.99 246.333 1373.4 244.797Z" fill="#15616D"/>
<path d="M1274.64 306.245C1272.52 303.689 1269.51 302.041 1266.22 301.636C1262.94 300.93 1259.55 300.93 1256.27 301.636C1253.16 303.837 1250.97 307.124 1250.14 310.853C1249.03 313.824 1249.03 317.1 1250.14 320.071C1251.35 320.623 1252.65 320.909 1253.97 320.909C1255.29 320.909 1256.6 320.623 1257.8 320.071C1261.08 320.776 1264.47 320.776 1267.75 320.071C1270.67 317.828 1273.03 314.935 1274.64 311.622C1275.42 308.339 1275.42 304.919 1274.64 301.636V306.245Z" fill="#15616D"/>
<path d="M1326.7 141.104L1331.29 148.017L1336.65 156.466C1349.66 174.9 1361.15 193.334 1371.87 211.769L1376.46 218.682L1381.05 226.363V221.754C1381.05 221.754 1377.99 213.305 1377.99 209.464L1362.68 185.653L1358.85 178.74L1342.77 154.161L1335.88 144.944L1332.06 138.799L1326.7 141.104Z" fill="#15616D"/>
<path d="M1438.47 55.8447L1428.52 61.9895L1420.1 65.83C1396.36 78.8877 1373.4 91.9454 1351.2 105.771H1345.07L1333.59 113.452L1349.66 103.467L1372.63 90.4092L1392.54 78.8877L1417.8 65.0619L1431.58 57.3809H1436.94L1438.47 55.8447Z" fill="#15616D"/>
<path d="M1333.59 116.524C1331.03 113.583 1327.49 111.672 1323.64 111.148C1319.7 109.605 1315.33 109.605 1311.39 111.148C1308.55 112.208 1306.09 114.087 1304.32 116.548C1302.55 119.008 1301.55 121.94 1301.44 124.974C1300.67 126.663 1300.28 128.496 1300.28 130.35C1300.28 132.204 1300.67 134.037 1301.44 135.727C1303.99 138.669 1307.53 140.579 1311.39 141.104C1315.18 141.83 1319.08 141.83 1322.87 141.104C1325.51 138.929 1327.38 135.97 1328.23 132.655C1329.4 129.43 1329.4 125.894 1328.23 122.669C1329.04 123.382 1330.1 123.742 1331.18 123.67C1332.26 123.598 1333.26 123.1 1333.97 122.285C1334.68 121.47 1335.04 120.406 1334.97 119.325C1334.9 118.245 1334.4 117.237 1333.59 116.524Z" fill="#15616D"/>
<path d="M1387.18 -42.4721L1433.11 19.7439C1434.88 22.9888 1436.93 26.0728 1439.23 28.9611L1444.59 36.6421V32.0335L1436.17 19.7439C1421.37 -0.738719 1406.06 -21.4774 1390.24 -42.4721L1386.41 -47.8488L1377.99 -61.6746V-51.6893L1387.18 -42.4721Z" fill="#15616D"/>
<path d="M1191.96 679.541C1192.28 675.964 1192.28 672.365 1191.96 668.787C1194.26 672.628 1193.49 676.468 1191.96 679.541Z" fill="#15616D"/>
<path d="M1169.76 678.005C1151.39 690.294 1133.78 702.584 1117.7 714.873L1112.35 718.714L1103.92 724.859H1108.52L1117.7 717.178L1142.2 699.511L1168.23 681.845L1176.65 676.468L1183.54 671.86H1178.18L1169.76 678.005Z" fill="#15616D"/>
<path d="M1164.4 727.163L1171.29 717.178L1163.64 727.931L1164.4 727.163Z" fill="#15616D"/>
<path d="M1192.73 670.324C1192.73 670.324 1192.73 677.236 1188.9 680.309C1190.57 677.147 1191.86 673.794 1192.73 670.324Z" fill="#15616D"/>
<path d="M1179.71 700.28C1179.71 706.424 1172.82 711.801 1169 717.946C1172.82 711.801 1176.65 706.424 1179.71 700.28Z" fill="#15616D"/>
<path d="M1161.34 729.467L1168.23 718.714L1160.58 729.467H1161.34Z" fill="#15616D"/>
<path d="M1064.11 787.075L1075.6 770.177C1075.6 764.032 1082.49 758.655 1084.78 753.278C1086.63 750.105 1088.17 746.761 1089.38 743.293L1084.02 754.046C1077.62 765.943 1070.19 777.253 1061.82 787.843L1054.16 797.828C1056.73 794.06 1059.54 790.468 1062.58 787.075H1064.11Z" fill="#15616D"/>
<path d="M1090.14 739.453L1097.8 731.772L1102.39 724.859H1096.27L1089.38 732.54C1087.31 734.734 1085.74 737.355 1084.78 740.221H1089.38L1090.14 739.453Z" fill="#15616D"/>
<path d="M1044.21 807.045C1048.48 803.06 1053.09 799.461 1057.99 796.292L1050.33 803.205L1042.68 810.886C1043.16 809.595 1043.67 808.315 1044.21 807.045Z" fill="#15616D"/>
<path d="M1325.17 570.471C1325.17 570.471 1325.17 570.471 1325.17 576.616C1325.17 582.76 1324.4 572.775 1325.17 570.471Z" fill="#15616D"/>
<path d="M1296.08 522.849L1268.52 539.747H1263.92L1236.36 557.413L1229.47 562.79C1226.4 564.12 1223.56 565.935 1221.05 568.167L1227.18 563.558L1236.36 557.413L1296.84 520.544L1304.5 515.936L1313.69 510.559H1308.33L1296.08 522.849Z" fill="#15616D"/>
<path d="M1204.21 640.368C1204.57 633.716 1204.57 627.049 1204.21 620.397C1204.62 613.747 1204.62 607.077 1204.21 600.427V585.833C1204.59 588.379 1204.59 590.967 1204.21 593.514C1203.82 606.934 1202.28 620.297 1199.62 633.455V639.6C1199.62 639.6 1199.62 639.6 1199.62 644.976C1201.37 643.674 1202.91 642.122 1204.21 640.368Z" fill="#15616D"/>
<path d="M1205.74 571.239L1198.85 578.92C1198.1 581.686 1198.1 584.603 1198.85 587.369C1198.85 587.369 1198.85 587.369 1202.68 587.369H1209.57C1212.69 585.135 1215.31 582.254 1217.23 578.92C1217.64 576.376 1217.64 573.782 1217.23 571.239C1217.23 571.239 1217.23 571.239 1212.63 567.398C1210.15 566.578 1207.46 566.578 1204.98 567.398L1205.74 571.239Z" fill="#15616D"/>
<path d="M1459.14 413.779C1459.14 413.779 1459.14 418.387 1459.14 420.692C1459.14 422.996 1459.91 416.083 1459.14 413.779Z" fill="#15616D"/>
<path d="M1404.02 355.403C1394.07 360.012 1384.88 365.389 1375.69 370.765L1365.74 376.142L1338.18 391.504L1322.87 400.721L1330.53 396.881L1340.48 390.736L1371.1 373.07H1377.22L1406.32 356.94L1421.63 349.259H1425.45L1404.02 355.403Z" fill="#15616D"/>
<path d="M1326.7 482.908C1324.22 467.31 1320.64 451.909 1315.98 436.822V429.909C1316.31 428.132 1316.31 426.309 1315.98 424.532V429.141V437.59C1315.98 444.503 1320.57 452.184 1322.1 459.096C1323.75 466.194 1325.03 473.373 1325.93 480.603C1326.3 482.892 1326.3 485.227 1325.93 487.516V492.893H1329.76V488.284C1329.76 488.284 1327.46 485.212 1326.7 482.908Z" fill="#15616D"/>
<path d="M1301.44 404.562C1298.31 406.795 1295.7 409.677 1293.78 413.011C1293.09 416.044 1293.09 419.194 1293.78 422.228C1293.41 423.407 1293.33 424.659 1293.54 425.877C1293.76 427.095 1294.26 428.243 1295.01 429.224C1295.76 430.204 1296.74 430.988 1297.86 431.508C1298.98 432.029 1300.2 432.27 1301.44 432.213C1304.72 432.919 1308.11 432.919 1311.39 432.213C1314.51 429.979 1317.12 427.098 1319.04 423.764C1320.16 420.794 1320.16 417.517 1319.04 414.547C1318.56 413.338 1317.71 412.315 1316.61 411.624C1315.51 410.934 1314.21 410.613 1312.92 410.706C1311.35 410.008 1309.66 409.646 1307.94 409.646C1306.23 409.646 1304.53 410.008 1302.97 410.706L1301.44 404.562Z" fill="#15616D"/>
<path d="M1492.82 181.813L1461.43 197.175L1454.54 201.783L1424.69 217.145L1410.91 224.826H1405.55H1413.2L1423.92 218.682L1495.12 183.349H1502.77L1514.26 177.972H1507.37L1492.82 181.813Z" fill="#15616D"/>
<path d="M1430.05 314.694C1430.05 307.013 1423.16 299.332 1419.33 290.883C1415.5 282.434 1411.68 274.753 1407.08 266.304L1402.49 257.855C1402.35 255.809 1402.35 253.756 1402.49 251.71H1398.66V256.318C1400.16 259.55 1401.95 262.636 1404.02 265.536C1413.21 283.202 1420.86 300.868 1428.52 317.766C1428.95 320.309 1428.95 322.905 1428.52 325.447V330.824H1432.35C1432.15 325.381 1431.38 319.974 1430.05 314.694Z" fill="#15616D"/>
<path d="M1377.99 226.363C1374.67 228.371 1372.01 231.308 1370.34 234.812C1369.17 238.037 1369.17 241.572 1370.34 244.797C1372.58 247.199 1375.53 248.814 1378.76 249.406C1382.23 250.576 1386 250.576 1389.47 249.406H1393.3C1396.59 247.363 1399.24 244.436 1400.96 240.956C1401.7 239.399 1402.09 237.692 1402.09 235.964C1402.09 234.235 1401.7 232.529 1400.96 230.971C1400.09 229.457 1398.88 228.176 1397.41 227.239C1395.94 226.303 1394.27 225.738 1392.54 225.595C1388.79 224.463 1384.8 224.463 1381.05 225.595L1377.99 226.363Z" fill="#15616D"/>
<path d="M1563.25 -3.299L1528.04 12.063H1524.21L1490.53 28.193L1473.68 36.6421L1483.64 32.0335L1492.82 26.6568L1569.38 -6.37139H1577.03L1589.28 -10.98H1582.39L1563.25 -3.299Z" fill="#15616D"/>
<path d="M1642.87 124.973C1617.61 134.191 1592.34 143.408 1566.32 154.161C1592.34 141.872 1617.61 132.654 1642.87 124.973Z" fill="#15616D"/>
<path d="M1641.34 120.365C1615.31 129.582 1590.81 138.799 1564.79 149.553C1590.81 138.799 1616.08 129.582 1641.34 120.365Z" fill="#15616D"/>
<path d="M1515.02 137.263L1498.95 111.148V105.771C1493.59 96.554 1487.46 87.3368 1481.34 78.1196L1476.75 71.2067L1470.62 61.9895H1466.79C1469 64.2251 1470.82 66.8228 1472.15 69.6705C1474.38 72.3442 1476.43 75.167 1478.28 78.1196C1491.29 98.0901 1503.54 117.293 1515.02 136.495L1520.38 144.944L1524.21 152.625H1528.04L1524.21 146.48L1515.02 137.263Z" fill="#15616D"/>
<path d="M1470.62 39.7145C1468.14 36.5402 1464.61 34.3607 1460.67 33.5698C1456.47 32.0445 1451.86 32.0445 1447.66 33.5698C1445.86 34.2328 1444.28 35.3661 1443.06 36.8518C1441.85 38.3376 1441.06 40.1217 1440.77 42.0189C1440.01 43.7085 1439.61 45.5414 1439.61 47.3955C1439.61 49.2497 1440.01 51.0826 1440.77 52.7722C1443.25 55.9465 1446.78 58.1261 1450.72 58.917C1454.76 59.7045 1458.92 59.7045 1462.97 58.917H1466.8C1470.09 57.101 1472.56 54.0726 1473.69 50.468C1474.45 48.7783 1474.84 46.9454 1474.84 45.0912C1474.84 43.2371 1474.45 41.4042 1473.69 39.7145C1473.69 39.7145 1472.15 40.4826 1470.62 39.7145Z" fill="#15616D"/>
<path d="M1142.97 754.046L1151.39 744.061C1148.78 747.55 1145.96 750.884 1142.97 754.046Z" fill="#15616D"/>
<path d="M1103.92 790.147C1116.17 779.394 1128.42 767.872 1138.37 757.119C1127.64 768.885 1116.13 779.919 1103.92 790.147Z" fill="#15616D"/>
<path d="M978.373 869.262C1006.7 850.827 1037.32 833.161 1070.24 814.726C1035.79 833.161 1005.93 851.595 978.373 869.262Z" fill="#15616D"/>
<path d="M1041.15 816.263C1021.62 835.47 1000.91 853.428 979.138 870.03C1001.39 854.03 1022.14 836.033 1041.15 816.263Z" fill="#15616D"/>
<path d="M1143.73 744.061L1136.08 748.67L1127.66 753.278C1108.52 764.8 1090.14 776.321 1073.3 788.611L1064.12 794.756H1058.76L1065.65 790.147L1073.3 784.77L1128.42 749.438L1136.08 744.829L1143.73 740.221V744.061Z" fill="#15616D"/>
<path d="M1041.15 816.262L1050.34 809.349L1056.46 803.205C1048.01 808.879 1040.29 815.588 1033.49 823.175L1041.15 816.262Z" fill="#15616D"/>
<path d="M1079.43 807.813L1071.77 816.262C1074.11 813.259 1076.67 810.435 1079.43 807.813Z" fill="#15616D"/>
<path d="M982.967 865.421H978.373L968.421 871.566L953.11 882.319L969.187 871.566L976.077 866.957L982.967 865.421Z" fill="#15616D"/>
<path d="M1192.73 670.324C1191.92 674.058 1190.63 677.672 1188.9 681.077C1186.41 687.111 1183.6 693.009 1180.48 698.743C1180.48 704.888 1173.59 710.265 1169.76 716.41L1162.87 727.163L1170.53 716.41C1177.79 704.871 1184.19 692.804 1189.67 680.309C1189.67 680.309 1189.67 673.396 1189.67 669.556L1192.73 670.324Z" fill="#15616D"/>
<path d="M1307.56 596.586H1300.67L1289.95 602.731L1227.18 638.064H1221.05L1211.1 644.208H1215.69L1227.94 637.295L1256.27 620.397H1260.1L1289.95 603.499L1300.67 598.122L1308.33 594.282L1307.56 596.586Z" fill="#15616D"/>
<path d="M1211.1 651.889H1203.45C1200.31 653.761 1197.47 656.091 1195.02 658.802C1192.66 660.899 1190.82 663.532 1189.67 666.483H1196.56L1205.74 658.802C1208.06 656.963 1209.89 654.592 1211.1 651.889Z" fill="#15616D"/>
<path d="M1357.32 572.007C1380.29 560.486 1404.02 548.964 1429.28 538.211C1404.02 548.964 1377.99 560.486 1357.32 572.007Z" fill="#15616D"/>
<path d="M1327.46 516.704V528.226C1329.01 542.265 1329.01 556.432 1327.46 570.471C1327.46 570.471 1327.46 570.471 1327.46 576.616C1327.46 582.761 1327.46 576.616 1327.46 581.992C1327.82 579.188 1327.82 576.348 1327.46 573.543C1327.89 567.662 1327.89 561.758 1327.46 555.877V550.5C1327.84 544.362 1327.84 538.205 1327.46 532.066C1327.46 532.066 1327.46 526.689 1327.46 524.385V519.776V516.704Z" fill="#15616D"/>
<path d="M1448.42 442.966H1443.06L1429.28 449.879L1394.83 466.777L1361.15 484.444L1350.43 489.82L1342.78 494.429H1347.37L1360.38 487.516C1382.58 475.226 1405.55 463.705 1429.28 452.183H1438.47L1448.42 447.575V442.966Z" fill="#15616D"/>
<path d="M1342.78 496.733C1342.59 495.648 1342.03 494.665 1341.19 493.96C1340.34 493.256 1339.28 492.877 1338.18 492.893C1335.22 491.772 1331.96 491.772 1329 492.893H1325.17C1321.91 494.623 1319.24 497.3 1317.51 500.574C1316.33 501.639 1315.37 502.94 1314.71 504.394C1314.05 505.849 1313.7 507.425 1313.69 509.023C1314.4 509.364 1315.19 509.542 1315.98 509.542C1316.78 509.542 1317.56 509.364 1318.28 509.023C1321.26 510.018 1324.48 510.018 1327.46 509.023C1330.89 506.932 1333.98 504.343 1336.65 501.342C1338.55 498.852 1339.86 495.963 1340.48 492.893C1340.48 492.893 1343.54 496.733 1342.78 496.733Z" fill="#15616D"/>
<path d="M1613.01 350.794C1613.01 350.794 1613.01 355.403 1613.01 357.707C1613.01 360.012 1613.78 355.403 1613.01 350.794Z" fill="#15616D"/>
<path d="M1441.53 355.403C1441.63 357.194 1441.63 358.989 1441.53 360.78C1441.84 363.331 1441.84 365.91 1441.53 368.461C1446.84 384.053 1451.18 399.957 1454.55 416.083C1454.55 416.083 1454.55 420.691 1454.55 422.996C1454.55 425.3 1454.55 426.836 1454.55 429.141H1458.37C1458.73 426.85 1458.73 424.518 1458.37 422.228C1458.75 420.197 1458.75 418.114 1458.37 416.083C1455.01 399.957 1450.66 384.053 1445.36 368.461V362.316V355.403H1441.53Z" fill="#15616D"/>
<path d="M1567.08 278.593H1558.66L1546.41 283.97L1511.2 299.332L1476.75 315.462L1467.56 320.071L1454.54 331.592L1462.97 326.984L1474.45 321.607L1505.84 307.013H1513.49L1547.18 292.419H1556.36L1567.08 287.81C1567.08 287.81 1567.08 282.434 1567.08 278.593Z" fill="#15616D"/>
<path d="M1454.55 331.592C1453.67 330.317 1452.54 329.245 1451.22 328.45C1449.9 327.655 1448.42 327.155 1446.89 326.984C1443.4 325.915 1439.67 325.915 1436.17 326.984H1432.34C1429.22 329.218 1426.61 332.099 1424.69 335.433C1423.95 336.856 1423.57 338.437 1423.57 340.041C1423.57 341.646 1423.95 343.227 1424.69 344.65C1426.33 346.992 1428.79 348.636 1431.58 349.259C1435.07 350.327 1438.8 350.327 1442.3 349.259H1446.12C1449.17 347.555 1451.99 345.492 1454.55 343.114C1455.61 340.399 1455.61 337.379 1454.55 334.665C1454.55 334.665 1454.55 332.36 1454.55 331.592Z" fill="#15616D"/>
<path d="M1535.69 180.277V186.422C1537.19 189.654 1538.99 192.739 1541.05 195.639C1551 214.073 1560.19 232.507 1567.85 250.174L1571.67 257.855C1571.39 260.15 1571.39 262.472 1571.67 264.768H1575.5V260.927L1570.91 250.174L1558.66 224.058L1544.11 197.175C1542.38 193.18 1540.33 189.328 1537.99 185.653L1535.69 180.277Z" fill="#15616D"/>
<path d="M1662.01 112.684H1653.59L1641.34 117.293C1616.08 126.51 1590.81 135.727 1564.79 146.48L1554.07 151.089H1544.88H1549.47L1564.79 144.944C1589.28 134.191 1614.55 124.974 1641.34 115.756L1657.42 109.612H1662.01C1662.01 109.612 1662.78 114.22 1662.01 112.684Z" fill="#15616D"/>
<path d="M1545.65 158.002C1544.62 156.397 1543.27 155.023 1541.69 153.966C1540.11 152.908 1538.33 152.19 1536.46 151.857C1532.41 151.088 1528.26 151.088 1524.21 151.857H1520.38C1517.12 153.588 1514.45 156.264 1512.73 159.538C1512.4 161.573 1512.4 163.648 1512.73 165.683C1515 168.574 1518.28 170.495 1521.91 171.059C1525.92 172.212 1530.16 172.212 1534.16 171.059C1537.77 169.557 1540.75 166.842 1542.58 163.378C1543.69 160.143 1543.69 156.629 1542.58 153.393L1545.65 158.002Z" fill="#15616D"/>
<path d="M1607.66 -0.994629C1610.73 3.17863 1613.54 7.53961 1616.08 12.0631L1655.89 75.0471L1661.25 84.2643L1665.84 91.9453H1669.67L1662.01 78.8877L1622.2 15.9035L1617.61 9.75875L1610.72 -0.994629H1607.66Z" fill="#15616D"/>
<path d="M1224.88 733.308C1244.38 717.03 1261.85 698.462 1276.94 678.005H1273.11C1259.01 698.081 1242.84 716.617 1224.88 733.308Z" fill="#15616D"/>
<path d="M1253.2 684.15L1233.3 694.135L1208.8 707.192L1188.13 717.946L1175.12 725.627H1180.48L1191.96 719.482L1214.93 707.192L1231 697.975L1257.8 684.918L1266.98 680.309L1276.17 675.7H1272.34L1253.2 684.15Z" fill="#15616D"/>
<path d="M1106.99 788.611L1125.36 771.713C1131.29 766.661 1136.68 760.997 1141.44 754.815C1144.17 751.632 1146.73 748.298 1149.09 744.829L1140.67 754.815C1130.72 765.568 1118.47 777.089 1106.22 787.843L1094.74 797.828L1107.75 787.843L1106.99 788.611Z" fill="#15616D"/>
<path d="M1161.34 729.467L1148.33 739.453L1140.67 747.134C1140.67 747.134 1140.67 747.134 1146.03 747.134L1156.75 740.221L1164.4 732.54H1157.51L1161.34 729.467Z" fill="#15616D"/>
<path d="M1214.93 739.453C1211.03 741.208 1207.42 743.538 1204.21 746.366C1211.26 744.577 1218.17 742.267 1224.88 739.453C1235.6 733.308 1241.72 727.931 1238.66 727.931H1231.01C1224.93 730.655 1219.47 734.573 1214.93 739.453Z" fill="#15616D"/>
<path d="M1100.1 797.828H1093.97H1090.14L1083.25 802.437C1078 805.432 1073.12 809.042 1068.71 813.19L1087.85 802.437L1098.57 796.292L1100.1 797.828Z" fill="#15616D"/>
<path d="M1429.28 538.211C1404.02 548.964 1380.29 560.486 1357.32 572.007L1346.6 576.616L1338.18 581.224H1343.54L1356.56 574.311L1390.24 558.949L1425.46 542.819L1434.64 538.979L1445.36 534.37L1433.88 539.747L1429.28 538.211Z" fill="#15616D"/>
<path d="M1440 595.818H1443.83C1453.9 576.216 1461.12 555.263 1465.26 533.602H1461.44C1457.29 555.263 1450.08 576.216 1440 595.818Z" fill="#15616D"/>
<path d="M1301.44 662.643C1338.18 645.744 1377.99 628.846 1417.03 612.716C1377.99 625.774 1341.24 641.904 1301.44 662.643Z" fill="#15616D"/>
<path d="M1301.44 648.049C1308.56 635.598 1314.46 622.478 1319.04 608.876V602.731C1319.04 602.731 1319.04 602.731 1319.04 598.122V601.963V609.644L1312.15 626.542C1309.81 632.642 1306.99 638.549 1303.73 644.208C1302.17 646.342 1300.89 648.665 1299.9 651.121C1299.58 652.381 1299.58 653.702 1299.9 654.962H1303.73C1303.24 652.576 1302.47 650.256 1301.44 648.049Z" fill="#15616D"/>
<path d="M1322.87 585.833C1319.33 587.422 1316.2 589.784 1313.68 592.746L1307.56 600.427H1315.98C1320.01 598.582 1323.65 595.974 1326.7 592.746C1328.98 590.665 1331.03 588.348 1332.82 585.833H1323.64H1322.87Z" fill="#15616D"/>
<path d="M1427.75 601.963C1424.82 604.112 1422.24 606.703 1420.1 609.644C1420.1 609.644 1420.1 609.644 1420.1 613.484C1429.38 612.057 1438.26 608.653 1446.13 603.499C1455.31 597.354 1458.37 591.21 1453.02 590.441H1443.06H1439.24L1427.75 601.963Z" fill="#15616D"/>
<path d="M1301.43 656.498C1301.43 656.498 1296.84 656.498 1293.01 656.498H1289.19L1278.47 663.411L1270.81 671.092H1278.47H1282.3L1293.78 663.411C1296.35 663.526 1298.93 663.267 1301.43 662.643V656.498Z" fill="#15616D"/>
<path d="M1607.66 471.386C1565.55 485.212 1524.98 499.806 1485.17 515.936C1524.21 500.574 1565.55 485.212 1607.66 471.386C1607.66 472.922 1607.66 472.154 1607.66 471.386Z" fill="#15616D"/>
<path d="M1577.8 388.432L1501.24 419.155L1492.06 422.996L1482.11 427.605H1485.93L1502.77 420.692L1530.33 409.17L1547.94 402.257L1577.8 389.968L1591.58 385.359H1599.23L1588.52 389.2L1577.8 388.432Z" fill="#15616D"/>
<path d="M1622.2 456.792C1623.08 433.364 1621.28 409.913 1616.84 386.895H1613.01C1618.66 409.778 1621.74 433.223 1622.2 456.792Z" fill="#15616D"/>
<path d="M1469.86 502.11C1471.38 487.556 1471.38 472.882 1469.86 458.328C1469.86 458.328 1469.86 452.183 1469.86 449.111H1466.03C1466.03 449.111 1466.03 455.256 1466.03 458.328C1466.41 464.467 1466.41 470.624 1466.03 476.763V483.676C1466.41 489.814 1466.41 495.971 1466.03 502.11C1466.03 502.11 1466.03 507.487 1466.03 509.791V513.631H1470.62V509.023C1470.85 506.69 1470.59 504.336 1469.86 502.11Z" fill="#15616D"/>
<path d="M1461.44 426.836C1458.88 428.271 1456.56 430.083 1454.55 432.213C1453.97 435 1453.97 437.876 1454.55 440.662C1455.1 441.662 1455.87 442.526 1456.79 443.19C1457.72 443.855 1458.78 444.303 1459.9 444.503C1463.13 445.615 1466.63 445.615 1469.86 444.503H1473.68C1477.44 442.576 1480.82 439.972 1483.64 436.822C1485.85 434.532 1487.2 431.547 1487.46 428.373C1486.53 427.833 1485.48 427.549 1484.4 427.549C1483.33 427.549 1482.27 427.833 1481.34 428.373C1477.85 427.304 1474.12 427.304 1470.62 428.373L1461.44 426.836Z" fill="#15616D"/>
<path d="M1607.66 463.705C1605.12 465.643 1603.24 468.328 1602.3 471.386C1602.3 471.386 1602.3 475.227 1606.89 475.995C1616.52 476.338 1625.98 473.356 1633.68 467.546C1641.34 461.401 1642.11 455.256 1633.68 452.952C1629.88 452.292 1626 452.292 1622.2 452.952C1616.5 455.206 1611.49 458.912 1607.66 463.705Z" fill="#15616D"/>
<path d="M1482.87 515.936C1482.87 515.936 1482.87 512.095 1479.04 512.095C1475.81 511.039 1472.33 511.039 1469.09 512.095H1464.5C1460.84 513.867 1457.49 516.199 1454.55 519.008C1451.99 521.113 1449.91 523.729 1448.42 526.689H1457.61H1461.44C1465.75 525.312 1469.68 522.945 1472.92 519.776C1475.62 517.82 1477.73 515.165 1479.04 512.095L1482.87 515.936Z" fill="#15616D"/>
<path d="M1634.45 368.461C1675.02 354.635 1717.13 342.345 1760 331.592C1717.13 342.345 1675.79 355.403 1634.45 368.461Z" fill="#15616D"/>
<path d="M1613.01 350.794C1608.42 334.664 1603.06 317.766 1596.94 300.868V293.955V287.042H1593.11V291.651V300.868C1593.11 309.317 1599.23 317.766 1601.53 326.215C1601.53 333.896 1606.89 342.345 1609.19 350.026C1611.48 357.707 1609.19 355.403 1609.19 358.475C1609.19 361.548 1609.19 358.475 1609.19 363.084H1613.01V356.939C1613.01 356.939 1613.78 355.403 1613.01 350.794Z" fill="#15616D"/>
<path d="M1715.6 229.435L1700.29 234.044L1667.37 244.797H1654.35L1622.2 256.319L1606.89 261.695H1601.53L1621.44 254.014L1646.7 245.565L1668.9 237.884L1698.76 228.667L1713.3 224.058H1720.96L1715.6 229.435Z" fill="#15616D"/>
<path d="M1743.92 237.116C1755.63 262.094 1765.85 287.741 1774.55 313.926H1778.37C1769.95 286.497 1759.98 259.571 1748.52 233.275L1743.92 237.116Z" fill="#15616D"/>
<path d="M1577.8 264.768C1574.09 266.437 1570.92 269.093 1568.61 272.449C1567.87 273.872 1567.49 275.453 1567.49 277.057C1567.49 278.662 1567.87 280.242 1568.61 281.666C1570.46 284.298 1573.17 286.2 1576.27 287.042C1580.32 287.777 1584.47 287.777 1588.52 287.042H1592.34C1595.9 285.148 1599.03 282.532 1601.53 279.361C1602.6 276.647 1602.6 273.627 1601.53 270.912C1599.49 268.127 1596.49 266.209 1593.11 265.536C1589.36 264.404 1585.37 264.404 1581.63 265.536L1577.8 264.768Z" fill="#15616D"/>
<path d="M1760.77 323.143C1759.58 324.208 1758.63 325.509 1757.97 326.964C1757.31 328.418 1756.96 329.994 1756.94 331.592C1757.77 332.977 1758.88 334.171 1760.2 335.097C1761.52 336.023 1763.01 336.661 1764.59 336.969C1769.35 338.06 1774.3 338.074 1779.06 337.011C1783.83 335.948 1788.3 333.835 1792.15 330.824C1793.5 329.677 1794.48 328.167 1794.99 326.474C1795.5 324.781 1795.51 322.977 1795.03 321.277C1794.54 319.576 1793.58 318.052 1792.26 316.884C1790.93 315.717 1789.3 314.957 1787.56 314.694C1783.3 313.517 1778.8 313.517 1774.55 314.694H1770.72C1766.79 316.696 1763.38 319.589 1760.77 323.143Z" fill="#15616D"/>
<path d="M1627.56 363.084C1623.77 362.339 1619.87 362.339 1616.08 363.084H1612.25C1608.38 364.454 1604.94 366.841 1602.3 369.997C1600.22 372.376 1598.89 375.314 1598.47 378.446C1599 379.686 1599.84 380.765 1600.92 381.574C1601.99 382.383 1603.26 382.893 1604.59 383.055C1608.34 384.187 1612.33 384.187 1616.08 383.055H1619.9L1630.62 376.142C1632.7 373.763 1634.03 370.825 1634.45 367.693C1634.45 367.693 1631.39 364.62 1627.56 363.084Z" fill="#15616D"/>
<path d="M1760.77 217.913C1802.11 207.16 1844.21 198.711 1887.85 191.798C1845.04 198.138 1802.61 206.857 1760.77 217.913Z" fill="#15616D"/>
<path d="M1896.27 176.436H1900.1C1884.78 146.48 1867.18 115.756 1848.04 82.728H1844.21C1863.35 114.988 1880.96 146.48 1896.27 176.436Z" fill="#15616D"/>
<path d="M1796.75 74.2791L1760.77 84.2643L1721.72 95.0177L1708.71 99.6263H1701.05H1712.54H1721.72C1748.52 91.9453 1774.55 85.0324 1798.28 79.6557H1809.76H1819.71H1811.29L1796.75 74.2791Z" fill="#15616D"/>
<path d="M1729.38 195.638C1720.19 176.436 1710.24 157.234 1698.76 137.263C1696.32 132.923 1693.5 128.81 1690.34 124.973C1690.34 124.973 1690.34 124.973 1690.34 131.118L1696.46 141.103C1696.46 148.016 1703.35 154.161 1707.18 161.074L1717.13 181.813L1726.32 198.711L1732.44 211H1737.03L1733.21 201.783L1729.38 195.638Z" fill="#15616D"/>
<path d="M1697.22 101.162C1693.67 97.6126 1689.14 95.206 1684.21 94.2495H1671.2H1667.37C1663.81 95.4416 1660.82 97.9014 1658.95 101.162C1658.2 102.72 1657.81 104.427 1657.81 106.155C1657.81 107.884 1658.2 109.59 1658.95 111.148C1661.43 114.472 1664.92 116.897 1668.9 118.061C1673.42 121.496 1678.65 123.859 1684.21 124.973C1687.82 123.471 1690.8 120.756 1692.63 117.292C1693.37 115.869 1693.75 114.288 1693.75 112.684C1693.75 111.079 1693.37 109.499 1692.63 108.075C1692.63 108.075 1697.99 102.699 1697.22 101.162Z" fill="#15616D"/>
<path d="M1900.1 175.668H1896.27C1892.52 176.498 1889.07 178.36 1886.32 181.045C1885.58 182.468 1885.19 184.049 1885.19 185.654C1885.19 187.258 1885.58 188.839 1886.32 190.262C1888.4 193.335 1891.32 195.737 1894.74 197.175C1900.61 200.359 1907.2 201.947 1913.88 201.784V177.973C1909.44 176.467 1904.78 175.689 1900.1 175.668Z" fill="#15616D"/>
<path d="M1750.05 211.001C1745.78 209.86 1741.3 209.86 1737.03 211.001H1732.44C1728.79 212.388 1725.6 214.785 1723.25 217.914C1722.14 220.884 1722.14 224.16 1723.25 227.131C1725.21 230.151 1728.21 232.34 1731.67 233.276C1735.72 234.044 1739.88 234.044 1743.92 233.276H1748.52C1751.61 232.433 1754.32 230.531 1756.17 227.899C1756.85 226.459 1757.21 224.884 1757.21 223.29C1757.21 221.696 1756.85 220.122 1756.17 218.682C1755.03 215.517 1752.87 212.818 1750.05 211.001Z" fill="#15616D"/>
<path d="M1857.22 66.598L1913.88 58.1489L1854.93 65.8299L1857.22 66.598Z" fill="#15616D"/>
<path d="M1760.77 -49.385L1764.59 -43.2402L1773.78 -30.9507L1794.45 1.30951L1814.35 32.8016C1817.44 37.2351 1820.25 41.8521 1822.78 46.6274V50.4679H1827.37V48.1636C1824.55 44.5054 1822 40.6557 1819.71 36.6421L1807.46 16.6715L1779.14 -28.6463L1766.89 -47.8488L1760.77 -49.385Z" fill="#15616D"/>
<path d="M1826.6 53.5403C1823.14 54.4758 1820.14 56.6644 1818.18 59.6851C1817.42 61.3748 1817.03 63.2077 1817.03 65.0618C1817.03 66.9159 1817.42 68.7488 1818.18 70.4385C1820.97 73.7795 1824.71 76.1903 1828.9 77.3514C1833.12 78.8146 1837.7 78.8146 1841.91 77.3514H1845.74C1847.63 77.0654 1849.43 76.3668 1851.02 75.3049C1852.6 74.243 1853.94 72.8439 1854.93 71.2066C1855.67 69.7833 1856.05 68.2024 1856.05 66.598C1856.05 64.9936 1855.67 63.4127 1854.93 61.9894C1851.97 58.6605 1848.31 56.0363 1844.21 54.3084C1839.93 53.266 1835.47 53.266 1831.2 54.3084L1826.6 53.5403Z" fill="#15616D"/>
</g>
</svg>
