<svg width="24" height="24" viewBox="0 0 24 24" fill="none" xmlns="http://www.w3.org/2000/svg">
<path d="M12.8194 1.58058L2.73939 11.6606C2.55171 11.8483 2.55171 12.1521 2.73939 12.3393L5.42067 15.0206C5.60835 15.2083 5.91219 15.2083 6.09939 15.0206L18.8607 2.2593C19.1631 1.9569 18.949 1.43994 18.5213 1.43994H13.1588C13.0316 1.43994 12.9096 1.49034 12.8194 1.58058ZM18.8607 11.8593L10.56 20.1599L7.53939 17.1393C7.35171 16.9516 7.35171 16.6478 7.53939 16.4606L12.8194 11.1806C12.9096 11.0903 13.0316 11.0399 13.1588 11.0399H18.5213C18.949 11.0399 19.1631 11.5569 18.8607 11.8593ZM18.8607 21.7406L15.36 18.2399L10.56 20.1599L12.8194 22.4193C12.9096 22.5095 13.0316 22.5599 13.1588 22.5599H18.5213C18.949 22.5599 19.1631 22.043 18.8607 21.7406Z" fill="#15616D"/>
</svg>
