<svg width="24" height="24" viewBox="0 0 24 24" fill="none" xmlns="http://www.w3.org/2000/svg">
<path d="M4.19462 4.85602L4.23683 4.89824V17.0427L1.84922 14.6551C1.00019 13.806 0.760957 12.502 1.25349 11.4091L4.19462 4.85602ZM17.0427 4.23683H4.89824L4.85602 4.19462L11.4091 1.25349C12.502 0.760957 13.806 1.00019 14.6551 1.84922L17.0427 4.23683ZM18.1169 18.7783H5.97712L5.72381 18.525C5.37201 18.1685 5.17499 17.6994 5.17499 17.1975V5.83639L18.1169 18.7783ZM6.91528 19.7164H18.7783V22.5309C18.7783 22.7889 18.5672 23 18.3092 23H10.3818C10.2551 23 10.1378 22.9484 10.0487 22.864L7.84405 20.6593L7.85343 20.6499L6.91528 19.7164ZM23 10.3818V18.3092C23 18.5672 22.7889 18.7783 22.5309 18.7783H19.4444L5.83639 5.17499H17.1975C17.6994 5.17499 18.1685 5.37201 18.525 5.72381L20.6499 7.85343L20.6593 7.84405L22.864 10.0487C22.9484 10.1378 23 10.2551 23 10.3818Z" fill="#15616D"/>
</svg>
