<svg width="24" height="24" viewBox="0 0 24 24" fill="none" xmlns="http://www.w3.org/2000/svg">
<path d="M16.374 9.07399C15.9142 8.60212 15.2165 8.38433 14.18 8.38433C13.3451 8.38433 12.5829 8.78764 12.0908 9.12642C12.0666 9.14255 12.0424 9.15868 12.0223 9.17481V8.8804C12.0223 8.52549 11.7319 8.23511 11.377 8.23511C11.0221 8.23511 10.7317 8.52549 10.7317 8.8804V10.7517C10.7317 10.7961 10.7357 10.8405 10.7438 10.8808L10.7357 16.7489C10.7357 17.1038 11.0221 17.3942 11.381 17.3942C11.7359 17.3942 12.0263 17.1079 12.0263 16.7489L12.0344 10.9131C12.3893 10.4251 13.3814 9.67491 14.18 9.67491C14.8293 9.67491 15.2568 9.77574 15.4544 9.97739C15.7448 10.2718 15.7367 10.9857 15.7246 11.8931C15.7206 12.0746 15.7206 12.2641 15.7206 12.4618V16.9909C15.7206 17.3458 16.011 17.6362 16.3659 17.6362C16.7208 17.6362 17.0112 17.3458 17.0112 16.9909V12.4658C17.0112 12.2762 17.0152 12.0907 17.0152 11.9133C17.0273 10.7517 17.0394 9.75154 16.374 9.07399Z" fill="black"/>
<path d="M7.01321 8.23926C6.6583 8.23926 6.36792 8.52964 6.36792 8.88455V16.995C6.36792 17.35 6.6583 17.6403 7.01321 17.6403C7.36812 17.6403 7.6585 17.35 7.6585 16.995V8.88455C7.6585 8.52561 7.36812 8.23926 7.01321 8.23926Z" fill="black"/>
<path d="M16.7691 2H7.41238C5.98064 2 4.63359 2.53237 3.61323 3.50434C2.5727 4.49244 2 5.81932 2 7.23493V16.5917C2 18.0153 2.56866 19.3664 3.60113 20.3989C4.63359 21.4313 5.98467 22 7.40835 22H16.7651C18.1847 22 19.5076 21.4273 20.4957 20.3868C21.4636 19.3664 22 18.0194 22 16.5917V7.23493C22.004 4.29885 19.7052 2 16.7691 2ZM20.7134 16.5957C20.7134 18.8663 18.9429 20.7134 16.7691 20.7134H7.41238C5.17806 20.7134 3.29058 18.826 3.29058 16.5957V7.23896C3.29058 5.0611 5.13773 3.29058 7.40835 3.29058H16.7651C18.9792 3.29058 20.7134 5.0248 20.7134 7.23493V16.5957Z" fill="black"/>
<path d="M7.00917 6.43652C6.60586 6.43652 6.27515 6.7632 6.27515 7.16651C6.27515 7.56982 6.60183 7.8965 7.00917 7.8965C7.40844 7.8965 7.73512 7.57385 7.73915 7.17458C7.73915 7.17054 7.73915 7.17054 7.73915 7.16651C7.74319 6.7632 7.41247 6.43652 7.00917 6.43652Z" fill="black"/>
</svg>
