<svg width="32" height="32" viewBox="0 0 32 32" fill="none" xmlns="http://www.w3.org/2000/svg">
<path d="M2.66675 16H12.0001C14.2667 16 16.0001 17.7333 16.0001 20C16.0001 22.2667 14.2667 24 12.0001 24H4.00008C3.20008 24 2.66675 23.4667 2.66675 22.6667V9.33333C2.66675 8.53333 3.20008 8 4.00008 8H10.6667C12.9334 8 14.6667 9.73333 14.6667 12C14.6667 14.2667 12.9334 16 10.6667 16H2.66675Z" stroke="#17191C" stroke-width="2" stroke-miterlimit="10"/>
<path d="M18.6667 18.6666H29.3334C29.3334 15.7333 26.9334 13.3333 24.0001 13.3333C21.0667 13.3333 18.6667 15.7333 18.6667 18.6666ZM18.6667 18.6666C18.6667 21.5999 21.0667 23.9999 24.0001 23.9999H26.2667" stroke="#17191C" stroke-width="2" stroke-miterlimit="10" stroke-linecap="round" stroke-linejoin="round"/>
<path d="M26 10H22" stroke="#17191C" stroke-width="2" stroke-miterlimit="10" stroke-linecap="round" stroke-linejoin="round"/>
</svg>
